<?xml version="1.0" standalone="no"?>
<!DOCTYPE svg PUBLIC "-//W3C//DTD SVG 1.1//EN" "http://www.w3.org/Graphics/SVG/1.1/DTD/svg11.dtd" >
<svg xmlns="http://www.w3.org/2000/svg" xmlns:xlink="http://www.w3.org/1999/xlink" version="1.1">
<metadata>
Created by FontForge 20170910 at Sat Apr  6 17:04:04 2019
 By Jimmy Wärting
Copyright (c) 2011-2012, Sorkin Type Co (www.sorkintype.com)
with Reserved Font Name "Autour"

This Font Software is licensed under the SIL Open Font License, Version 1.1. This license is copied below, and is also available with a FAQ at: http://scripts.sil.org/OFL
</metadata>
<defs>
<font id="AutourOne-Regular" horiz-adv-x="1184" >
  <font-face 
    font-family="Autour One"
    font-weight="400"
    font-stretch="normal"
    units-per-em="2048"
    panose-1="0 0 0 0 0 0 0 0 0 0"
    ascent="1638"
    descent="-410"
    x-height="1217"
    cap-height="1592"
    bbox="-168 -521 2515 1964"
    underline-thickness="189"
    underline-position="-441"
    unicode-range="U+0020-E000"
  />
<missing-glyph horiz-adv-x="0" 
 />
    <glyph glyph-name=".notdef" horiz-adv-x="0" 
 />
    <glyph glyph-name=".null" horiz-adv-x="0" 
 />
    <glyph glyph-name="nonmarkingreturn" horiz-adv-x="682" 
 />
    <glyph glyph-name="space" unicode=" " horiz-adv-x="769" 
 />
    <glyph glyph-name="exclam" unicode="!" horiz-adv-x="624" 
d="M188 86q2 116 27.5 165.5t86 49.5t95.5 -30.5t35 -84.5q0 -101 -38 -159t-91.5 -58t-84.5 38.5t-30 78.5zM211 606l6 93q0 178 -12 542t-12 554q0 46 31 75.5t88 29.5q125 0 125 -111l-12 -1093l8 -95q0 -46 -31.5 -71t-80 -25t-79.5 26.5t-31 74.5z" />
    <glyph glyph-name="quotedbl" unicode="&#x22;" horiz-adv-x="967" 
d="M166 1317l-15 265q0 46 31 75.5t88 29.5q125 0 125 -109l-15 -266l8 -150q0 -46 -30 -71t-78.5 -25t-83.5 27t-35 74zM587 1317l-15 265q0 46 31 75.5t88 29.5q125 0 125 -109l-15 -266l8 -150q0 -46 -30 -71t-78.5 -25t-83.5 27t-35 74z" />
    <glyph glyph-name="numbersign" unicode="#" horiz-adv-x="1551" 
d="M326 313l-132 1q-99 0 -99 128q0 77 93 90q51 3 194 4q46 182 69 284q-117 0 -153 1q-99 0 -99 129q0 57 32.5 74t109.5 17h160q56 270 56 277q29 165 118 165q114 0 114 -93q0 -22 -16 -77.5t-24 -72.5q-32 -132 -47 -198q204 0 294 2q19 97 27 151.5t11 76.5q7 42 7 46
q28 165 118 165q114 0 114 -93q0 -22 -15 -75.5t-24 -73.5q-33 -144 -44 -196h89l70 11q38 0 71 -27t33 -86t-26 -91t-71 -32h-216q-8 -39 -21 -100q-22 -100 -38 -182h94l71 12q37 0 70 -28t33 -86t-26 -90.5t-71 -32.5h-216q-44 -233 -53 -262.5t-17 -45.5t-17 -24
q-24 -21 -72.5 -21t-80.5 26.5t-34 69.5v1q0 30 22 78l46 178h-292q-58 -259 -64.5 -278t-17.5 -37q-22 -38 -77 -38t-87 26.5t-34 69.5v1q0 30 22 78q6 25 22 85.5t24 92.5zM588 537l297 1q33 135 65 282h-299z" />
    <glyph glyph-name="dollar" unicode="$" horiz-adv-x="1398" 
d="M257 180.5q-32 65.5 -32 124.5t1 81.5t4.5 58t12 56t23.5 41.5q27 42 83.5 42t87.5 -28.5t31 -68t-10 -90.5t-10 -71q0 -55 44 -92q76 -64 227 -64q115 0 196 48q91 53 91 174q0 86 -52 144q-55 61 -109 89q-78 41 -141.5 66t-95.5 39t-78 39t-76 48.5t-64 60t-54 76.5
q-45 92 -45 219t99.5 224.5t243.5 132.5v88q0 72 21.5 108t79.5 36t84.5 -19t26.5 -88.5t-1 -116.5q130 -21 233 -86q118 -77 118 -206q0 -52 -31.5 -82.5t-75 -30.5t-80.5 30.5t-41 73.5q-27 55 -84.5 73t-121 18t-115 -18t-92 -59.5t-40.5 -90t18 -85.5t41.5 -62.5
t69.5 -54.5q63 -39 141.5 -74.5t112 -52t81 -44t79.5 -53t67.5 -63t56.5 -77.5q48 -93 48 -193t-33 -176.5t-90 -128.5q-114 -104 -280 -133v-124q0 -73 -22 -109.5t-80 -36.5t-85 19.5t-27 68.5q0 118 2 180q-160 22 -271 110q-55 44 -87 109.5z" />
    <glyph glyph-name="percent" unicode="%" horiz-adv-x="2526" 
d="M185 1173q0 82 32 167t87 152.5t138 110t182 42.5t147 -41q12 2 24.5 2t24.5 -5q127 -51 199.5 -160.5t72.5 -233t-53 -229.5t-152 -173.5t-220 -67.5q-142 0 -267 75q-215 129 -215 361zM692 1422l-52 3q-99 0 -162 -76.5t-63 -178.5t71.5 -158.5t151 -56.5t128.5 40
q97 79 97 211q0 70 -45.5 132.5t-110.5 84.5q-4 -1 -15 -1zM856 -6q-33 37 -33 80.5t30 81.5q14 20 531 1368q26 103 49 128q41 48 87 48t80.5 -30t34.5 -68q0 -73 -28 -126l-549 -1414q-22 -81 -58 -97q-19 -8 -46 -8q-65 0 -98 37zM1585.5 819q101.5 72 216 72t163.5 -42
q10 2 22.5 2t25.5 -4q127 -52 199.5 -161t72.5 -217.5t-31.5 -192.5t-86 -149.5t-135 -105t-169.5 -39.5t-174 29t-155 82t-113.5 137.5t-43.5 193t53.5 216t155 179.5zM1884 667l-53 4q-98 0 -160.5 -76.5t-62.5 -178.5t71.5 -158.5t165.5 -56.5t152.5 79.5t58.5 160
t-45 143.5t-110 85q-5 -2 -17 -2z" />
    <glyph glyph-name="ampersand" unicode="&#x26;" horiz-adv-x="1912" 
d="M264 401q0 137 86 225q63 66 196 155q11 7 16 10q-77 98 -118.5 188t-41.5 185.5t37 171.5t97 125q126 104 283 104q148 0 261 -90q56 -44 89.5 -117.5t33.5 -151.5t-20 -135.5t-50 -100.5t-80 -87q-72 -63 -201 -142q182 -236 356 -382q98 67 147.5 171.5t51.5 222.5
q-9 11 -20.5 21.5t-18.5 19.5q-23 27 -23 72t29.5 81t80.5 36t83 -20t48 -54q30 -64 30 -143q0 -157 -61 -298.5t-176 -237.5q80 -63 155 -90q41 -1 67.5 -28t26.5 -65.5t-29 -73t-72 -34.5t-72.5 9t-63.5 30q-50 32 -96.5 69t-77.5 60q-95 -70 -214.5 -103.5t-229.5 -33.5
q-233 0 -371 118.5t-138 312.5zM500 462q-12 -30 -12 -78t28.5 -93.5t74.5 -70.5q91 -48 214 -48t236 75q-232 219 -354 380q-163 -107 -187 -165zM679.5 1315q-56.5 -53 -56.5 -156.5t112 -255.5q190 111 235 201q19 39 19 80q0 92 -49 138t-126.5 46t-134 -53z" />
    <glyph glyph-name="quotesingle" unicode="'" horiz-adv-x="546" 
d="M166 1317l-15 265q0 46 31 75.5t88 29.5q125 0 125 -109l-15 -266l8 -150q0 -46 -30 -71t-78.5 -25t-83.5 27t-35 74z" />
    <glyph glyph-name="parenleft" unicode="(" horiz-adv-x="1014" 
d="M119.5 544.5q-13.5 102.5 -13.5 224t26.5 255t71 239.5t103 198.5t123 159t130 114.5t125.5 71.5t109 23.5t77.5 -24.5t28.5 -65.5t-22.5 -65t-65 -40t-80 -36.5t-86.5 -58.5t-92 -85.5t-86 -118.5t-74 -154q-68 -186 -68 -437q0 -504 260 -745q64 -59 139 -98
q90 -15 118.5 -44t28.5 -74q0 -101 -104 -101q-55 0 -126 39q-125 66 -222 166t-155 205.5t-95 227t-50.5 224z" />
    <glyph glyph-name="parenright" unicode=")" horiz-adv-x="1014" 
d="M146.5 1675q-22.5 24 -22.5 65t28.5 65.5t77.5 24.5t109 -23.5t125.5 -71.5t130 -114.5t123 -159t102.5 -198.5q98 -232 98 -515q0 -365 -159 -654q-58 -106 -155 -206t-222 -166q-71 -39 -126 -39q-104 0 -104 101q0 45 28.5 74t118.5 44q318 164 384 622
q15 104 15 226.5t-19 235.5t-49.5 196t-73.5 154t-86 118.5t-92 85.5q-81 63 -145 87t-86.5 48z" />
    <glyph glyph-name="asterisk" unicode="*" 
d="M459 1620l-7 165q0 54 35.5 88.5t83.5 34.5q103 0 103 -123q0 -61 -9 -170q61 22 131.5 54.5t114 32.5t72.5 -25t29 -70.5t-35 -77.5t-74 -47q-174 -57 -185 -62q11 -16 51.5 -65.5t59 -87t20 -87.5t-34 -73t-67 -23t-53 13t-42.5 43q-35 48 -62 100.5t-39 70.5
q-78 -156 -153 -193q-28 -13 -65 -13t-65 24.5t-28 75.5t21.5 85.5t70 81t59.5 59.5q-28 11 -63 24t-59 22t-51 19q-79 27 -79 112q0 41 33.5 65.5t79 24.5t207.5 -78z" />
    <glyph glyph-name="plus" unicode="+" 
d="M462 526l1 87l-259 3q-99 0 -99 126q0 56 34 72.5t108 16.5l218 -1l3 269q0 72 54 91q25 8 72 8q91 0 91 -145v-72q-1 -56 -1 -151h184l71 11q37 0 70.5 -27t33.5 -84t-26.5 -89t-71.5 -32q-105 0 -164 1l-98 1v-175l13 -72q0 -36 -27.5 -69t-85 -33t-90 26t-32.5 70
q0 108 1 168z" />
    <glyph glyph-name="comma" unicode="," horiz-adv-x="588" 
d="M194 13q-23 46 -23 102t11 93t43 65.5t77 28.5t72.5 -14t41.5 -40q26 -48 26 -115.5t-27.5 -151t-58.5 -133.5q-65 -108 -139 -108q-44 0 -69 27t-25 59t26.5 73.5t44.5 113.5z" />
    <glyph glyph-name="hyphen" unicode="-" 
d="M945 609l-125 1q-64 0 -616 6q-99 0 -99 126q0 56 34 72.5t108 16.5l621 -1q30 11 72.5 11t72.5 -26t30 -84t-26.5 -90t-71.5 -32z" />
    <glyph glyph-name="period" unicode="." horiz-adv-x="588" 
d="M199 10q-30 35 -30 74t2.5 65t11 59t22.5 58q34 60 96 60q117 0 117 -156v-6q0 -95 -28 -142t-94.5 -47t-96.5 35z" />
    <glyph glyph-name="slash" unicode="/" horiz-adv-x="1015" 
d="M876 1703.5q32 -28.5 32 -57.5t-5 -49q-34 -116 -586 -1656q-3 -9 -4.5 -26t-5.5 -32t-15 -36q-23 -47 -83 -47t-97 35.5t-37 74.5q0 20 12.5 53.5t25.5 51.5q63 186 586 1650q9 27 32 47t68 20t77 -28.5z" />
    <glyph glyph-name="zero" unicode="0" horiz-adv-x="1461" 
d="M186 1236q72 187 207.5 292t316.5 105t314 -105q268 -212 268 -721q0 -437 -212 -675q-146 -162 -373 -162q-336 0 -496 344q-97 209 -97 472t72 450zM382.5 1131.5q-41.5 -138.5 -41.5 -291.5t22 -263t65 -201t116.5 -145.5t166.5 -54.5t163.5 54t111.5 146
q80 183 80 431q0 258 -85 434q-42 87 -111 137t-173 50t-188.5 -79t-126 -217.5z" />
    <glyph glyph-name="one" unicode="1" horiz-adv-x="1021" 
d="M443 88l13 206q0 500 -4 1049q-19 -9 -63 -38q-99 -65 -151 -65t-83.5 31t-31.5 80q0 69 75.5 107t196.5 111.5t176.5 73.5t86 -40t30.5 -89l-9 -53q-3 -170 -3 -332.5t-1.5 -326t-2.5 -268.5q-1 -284 11.5 -356.5t12.5 -89.5q0 -108 -118 -108q-75 0 -105 26.5t-30 81.5
z" />
    <glyph glyph-name="two" unicode="2" horiz-adv-x="1524" 
d="M1296 -12l-188 12h-864q-49 0 -84 28t-35 59.5t8 49.5t25 33q27 24 52 38t27.5 15.5t12.5 8t62 40.5t87.5 57.5t104.5 72.5t112.5 84t107 89.5t104 99.5t87 104t72.5 113q62 129 62 229t-49 169.5t-123.5 104.5t-157.5 35q-149 0 -249.5 -83.5t-108.5 -229.5
q13 -22 25 -40q25 -37 25 -84.5t-35.5 -75.5t-78 -28t-76.5 26t-51 65q-35 77 -35 172.5t51.5 194.5t135.5 160q175 126 398 126q156 0 282.5 -59t202.5 -175t76 -249.5t-47.5 -252t-119.5 -217t-170 -194.5q-162 -161 -359 -294q144 2 278 2l315 4l127 14q40 0 68.5 -33.5
t28.5 -87.5t-31.5 -78.5t-74.5 -24.5z" />
    <glyph glyph-name="three" unicode="3" horiz-adv-x="1687" 
d="M460 617l-21 -161q0 -116 122 -200.5t293 -84.5q218 0 327 140q56 72 56 152t-17 129t-46.5 81.5t-69.5 54.5q-75 41 -180 41q-27 0 -81 -12.5t-95 -12.5t-66.5 32.5t-25.5 65.5t16 66t32 49q95 94 349 462h-618q-58 0 -91 31t-33 73.5t29.5 76t82.5 33.5h849
q51 0 81.5 -24.5t30.5 -71t-19.5 -70.5t-101.5 -137q-208 -284 -306 -379q144 11 262.5 -42t188.5 -162t70 -262.5t-87.5 -274.5t-228 -181t-312 -60t-317.5 59t-237.5 175.5t-91.5 268.5q0 256 136 256q48 0 84 -25.5t36 -85.5z" />
    <glyph glyph-name="four" unicode="4" horiz-adv-x="1552" 
d="M1320 331l-149 1q1 -132 1 -399q0 -49 -35 -76t-76 -27t-77 27t-36 76q0 266 -1 401h-257q-336 0 -428 -3q-49 -23 -108.5 -23t-97.5 27t-38 86q0 116 150 123q134 143 225 340t105 400q4 52 4 275q0 52 36 82t92 30t80 -44t24 -150q0 -240 -99 -529.5t-203 -411.5
q224 0 514 5q-1 156 -1 489q0 51 34.5 81t77.5 30t78 -30t35 -81l1 -320v-166q90 0 137.5 1t79.5 -33.5t32 -73t-25.5 -73t-74.5 -34.5z" />
    <glyph glyph-name="five" unicode="5" horiz-adv-x="1695" 
d="M277.5 247.5q-53.5 89.5 -53.5 190t102 110.5q33 -1 61.5 -23.5t40.5 -59.5q93 -297 411 -297q144 0 249 92q112 97 112 278q0 148 -90 258q-99 119 -287.5 119t-321.5 -78q-8 -58 -43.5 -92.5t-88.5 -34.5t-83 33.5t-30 88t43 125.5q3 13 7 63q17 213 30.5 327t16 136.5
t11 55.5t20.5 50q30 42 88 44h755q54 0 83 -30.5t29 -73t-32.5 -73.5t-89.5 -30q-122 5 -640 5l-59 -392q64 38 153 58.5t197 20.5t221 -43t188 -119q156 -158 156 -404q0 -332 -271 -491q-157 -92 -351 -92q-214 0 -395 129q-85 60 -138.5 149.5z" />
    <glyph glyph-name="six" unicode="6" horiz-adv-x="1523" 
d="M146 483.5q-21 103.5 -21 259.5t46 327.5t132.5 300t219.5 202.5t314.5 74t289.5 -58q63 -34 63 -93t-32.5 -86t-64.5 -27t-50 4t-26.5 8.5t-21.5 12.5t-18 11q-35 18 -185.5 18t-266.5 -132t-155 -351q80 82 201.5 127.5t219.5 45.5q264 0 414 -147.5t150 -423.5
q0 -168 -91 -316q-102 -167 -282 -234q-99 -37 -225.5 -37t-236.5 41t-182.5 110.5t-121.5 164.5t-70 198.5zM361 588q0 -165 103 -288q49 -58 126 -93.5t155 -35.5t141.5 23t120 67.5t92 121.5t35.5 174.5t-29 172.5t-79 118q-99 85 -235 85q-180 0 -321 -111
q-76 -60 -109 -144v-90z" />
    <glyph glyph-name="seven" unicode="7" 
d="M799 1419l-472 -1q-124 -11 -145 -11q-126 0 -126 118q0 69 52 91q42 17 115 17h712q43 0 79.5 -30.5t36.5 -81t-13 -90.5q-67 -186 -395 -1279q-9 -183 -140 -183q-48 0 -86.5 33.5t-38.5 88t44 135.5q64 168 106.5 304.5t57 182t45 146.5t47.5 159q31 101 121 401z" />
    <glyph glyph-name="eight" unicode="8" horiz-adv-x="1522" 
d="M207.5 258q-51.5 96 -51.5 220.5t88.5 223.5t231.5 149q-106 60 -169.5 152.5t-63.5 215.5q0 194 139.5 304t363.5 110t358 -108t134 -309q0 -107 -62 -208.5t-160 -167.5q169 -72 248 -156t79 -207.5t-49 -219t-132 -157.5q-172 -131 -413 -131q-227 0 -405 131
q-85 62 -136.5 158zM701 734q-308 -63 -308 -254q0 -135 103.5 -218.5t247.5 -83.5q153 0 260 68q115 72 115 216q0 85 -109 148q-90 54 -175.5 81.5t-133.5 42.5zM494.5 1321.5q-24.5 -43.5 -24.5 -97t25 -97t69 -79.5q81 -64 202 -113q104 26 174.5 106t70.5 182.5
t-77 155t-188 52.5q-105 0 -186 -43q-41 -23 -65.5 -66.5z" />
    <glyph glyph-name="nine" unicode="9" horiz-adv-x="1518" 
d="M171 820q-46 111 -46 234.5t37.5 222.5t109 179.5t188.5 128.5t258.5 48t251 -38.5t182.5 -104t122 -156.5q91 -173 91 -409q0 -296 -96 -531q-51 -125 -126.5 -218t-191 -149.5t-256.5 -56.5q-110 0 -203 24q-178 47 -178 147q0 51 32 76.5t83.5 25.5t94 -26.5
t69.5 -31.5t109 -5q166 0 279.5 134t142.5 343q-77 -87 -193 -125.5t-230.5 -38.5t-219 37.5t-184.5 108t-126 181.5zM346 1080q0 -81 21.5 -152t56 -114t83.5 -70q85 -47 181.5 -47t178.5 29.5t155.5 93t106.5 147.5v72q0 165 -109 281t-292 116q-188 0 -300 -120
q-82 -87 -82 -236z" />
    <glyph glyph-name="colon" unicode=":" horiz-adv-x="588" 
d="M199 10q-30 35 -30 74t2.5 65t11 59t22.5 58q34 60 96 60q117 0 117 -156v-6q0 -95 -28 -142t-94.5 -47t-96.5 35zM199 687q-30 35 -30 74t2.5 65t11 59t22.5 58q34 60 96 60q117 0 117 -156v-6q0 -95 -28 -142t-94.5 -47t-96.5 35z" />
    <glyph glyph-name="semicolon" unicode=";" horiz-adv-x="588" 
d="M194 13q-23 46 -23 102t11 93t43 65.5t77 28.5t72.5 -14t41.5 -40q26 -48 26 -115.5t-27.5 -151t-58.5 -133.5q-65 -108 -139 -108q-44 0 -69 27t-25 59t26.5 73.5t44.5 113.5zM196 687q-30 35 -30 74t2.5 65t11 59t22.5 58q34 60 96 60q117 0 117 -156v-6
q0 -95 -28 -142t-94.5 -47t-96.5 35z" />
    <glyph glyph-name="less" unicode="&#x3c;" 
d="M193 502q-51 22 -51 126q0 43 20 64.5t70 35.5q92 38 264.5 119.5t250.5 115.5q52 41 92.5 41t72.5 -40.5t32 -74.5t-5.5 -51t-19.5 -29q-16 -14 -56 -32v1l-388 -181l370 -176q34 -5 68 -31t34 -74t-27 -85t-72.5 -37t-95.5 31q-92 49 -288.5 147t-270.5 130z" />
    <glyph glyph-name="equal" unicode="=" 
d="M945 324l-741 7q-99 0 -99 126q0 56 33.5 72t108.5 16l621 -1l71 12q37 0 70.5 -27t33.5 -84t-26.5 -89t-71.5 -32zM945 823l-741 7q-99 0 -99 126q0 56 33.5 72t108.5 16l621 -1l71 12q37 0 70.5 -27t33.5 -84t-26.5 -89t-71.5 -32z" />
    <glyph glyph-name="greater" unicode="&#x3e;" 
d="M256 222q-27 37 -27 85t34 74t68 31l370 176l-388 181v-1q-65 30 -75 61q-6 17 -6 51t32 74.5t72.5 40.5t92.5 -41q78 -34 250.5 -115.5t264.5 -119.5q50 -14 70 -35.5t20 -65.5q0 -103 -51 -125q-74 -32 -270.5 -130t-288.5 -147q-50 -31 -95.5 -31t-72.5 37z" />
    <glyph glyph-name="question" unicode="?" horiz-adv-x="1354" 
d="M751 629l3 -95q0 -54 -32 -84t-86 -30q-107 0 -107 207q0 180 220 373q20 17 68 56.5t73.5 63t57.5 59.5q62 70 62 147q0 121 -94.5 180t-254.5 59q-324 0 -324 -163q0 -36 31 -87t31 -89.5t-31 -66t-78.5 -27.5t-90 46t-65 107t-22.5 113q0 120 72 207q142 174 475 174
q247 0 407 -113q79 -56 124 -142.5t45 -198t-67.5 -216t-179.5 -189.5q-12 -9 -50 -37t-55.5 -42t-47.5 -42.5t-45 -50.5q-39 -59 -39 -119zM639 299q104 0 104 -107t-36.5 -165.5t-90.5 -58.5t-85 38.5t-30 78.5q2 125 30 169.5t108 44.5z" />
    <glyph glyph-name="at" unicode="@" horiz-adv-x="2200" 
d="M192 91q-64 164 -64 363t84 393.5t226 338.5t341.5 231t419.5 87q404 0 641 -262q126 -138 176 -344q21 -91 21 -171.5t-5 -146.5t-19 -139.5t-36 -136.5t-58 -121.5t-83 -99.5q-102 -90 -259 -90q-68 0 -146 57t-106 165q-60 -98 -143.5 -152.5t-233 -54.5t-246 111.5
t-96.5 306.5q0 179 84 338q99 185 280 258q103 42 244 42q282 0 317 -212q8 -40 8 -76v-31q0 -12 -2.5 -33t-2.5 -28q-2 -27 -18 -119.5t-16 -189t22.5 -139t79 -42.5t104.5 44t76 114q55 143 55.5 307t-49 293.5t-138.5 207.5q-177 152 -461 152q-158 0 -295.5 -48.5
t-236.5 -132.5t-171 -193q-141 -217 -141 -486q0 -328 170.5 -509.5t475.5 -181.5q122 0 163.5 17t87.5 42t96 25t79 -33.5t29 -58.5q0 -69 -90 -115q-131 -68 -399 -68q-173 0 -326 64.5t-264 178.5t-175 278zM847 597.5q-24 -75.5 -24 -172t41.5 -165.5t118.5 -69
q86 0 181 105q171 187 171 439q0 86 -39.5 115.5t-123 29.5t-150 -40.5t-109 -103.5t-66.5 -138.5z" />
    <glyph glyph-name="A" unicode="A" horiz-adv-x="1568" 
d="M666 495l-211 -6q-126 -304 -145.5 -367t-25.5 -77.5t-20 -34.5q-28 -39 -93.5 -39t-100.5 28t-35 89t42 119q52 86 291 622t283 624q8 50 38.5 85.5t70.5 35.5t61 -7.5t33.5 -16.5t23.5 -29q14 -24 32.5 -79t75 -166.5t241 -524t226.5 -503.5l19 -28q62 -85 62 -138
q0 -111 -117 -111q-53 0 -88.5 30.5t-40.5 76.5q-39 85 -184 411q-38 0 -110 3zM546 707q20 0 462 -3q-85 186 -241 518q-97 -222 -221 -515z" />
    <glyph glyph-name="B" unicode="B" horiz-adv-x="1476" 
d="M215 475l-4 798l-12 135q0 86 21 112.5t101 27t235.5 7.5t173 7t40 -0.5t66.5 -4.5t76 -11.5t76 -22.5t75.5 -36t65 -54t55.5 -75q48 -93 48 -227q0 -173 -135 -303q45 -18 85.5 -47t70.5 -66t57 -104t27 -145.5t-18 -153t-48 -126.5t-79.5 -89.5t-103 -60t-127.5 -35.5
q-120 -21 -276.5 -21t-291.5 27q-25 -11 -68 -11q-126 0 -126 97q0 34 13 94q3 213 3 288zM847 697l-413 -9l1 -479q128 -22 237 -22t159 4.5t105.5 20.5t93.5 43q86 62 86 191q0 150 -130 217q-65 34 -139 34zM435 1344q2 -14 2 -147t-2 -292v-13q98 -12 171 -12t139.5 6
t120 20.5t82.5 42.5q60 56 60 176.5t-69.5 173.5t-210 53t-293.5 -6v-2z" />
    <glyph glyph-name="C" unicode="C" horiz-adv-x="1495" 
d="M161.5 458q-52.5 141 -52.5 303t45 300.5t120 231.5t176 158q190 123 432 123q160 0 329 -59q5 -2 19.5 -7t20 -7t18.5 -7t18.5 -8.5t15.5 -9.5t15 -11.5t11.5 -13.5t9.5 -17q8 -22 8 -42q0 -65 -37 -94t-88 -29t-122 51q-83 34 -136 36t-117.5 2t-138.5 -20.5t-142 -66
t-120 -110.5q-113 -143 -113 -374q0 -301 171 -465q141 -135 367 -135q84 0 165.5 18.5t114.5 41.5q34 29 56 41t50 12q112 0 112 -105q0 -84 -120 -141v1q-49 -29 -159.5 -56.5t-209.5 -27.5q-178 0 -326 64t-244 173t-148.5 250z" />
    <glyph glyph-name="D" unicode="D" horiz-adv-x="1631" 
d="M229 117l8 193q0 675 -11 1073q-28 52 -28 93.5t25 69.5t79 28l117 -15l280 15q489 0 683 -316q110 -179 110 -426q0 -257 -128 -478q-153 -264 -466 -344q-115 -29 -207 -29t-193.5 11.5t-158.5 11.5q-110 0 -110 113zM446 1342l6 -1122q67 -18 188.5 -18t208.5 23.5
t147.5 61t108.5 89t76.5 104.5t47.5 110q33 99 33 225.5t-38.5 239t-118 177t-186 92t-221.5 27.5t-252 -9z" />
    <glyph glyph-name="E" unicode="E" horiz-adv-x="1321" 
d="M317 0q-119 0 -119 113q0 22 14 71l9 32l-23 1196q0 125 92 132q13 1 38 1h527l72 9q72 0 96.5 -25t24.5 -89t-31.5 -87.5t-81 -23.5t-75.5 3h-189l-149 -1h-93v-317q26 -1 495 -1l147 10q50 0 81.5 -36t31.5 -80.5t-34.5 -71t-92.5 -26.5l-628 -1v-599l408 -6l193 18
q141 0 141 -101q0 -113 -125 -119q-21 -1 -56 -1h-673z" />
    <glyph glyph-name="F" unicode="F" horiz-adv-x="1317" 
d="M1002 963l36 1q22 1 67.5 1t77 -35.5t31.5 -80.5t-35 -71.5t-92 -26.5l-649 -1v-503q0 -26 11.5 -78t11.5 -95t-29.5 -73t-105.5 -30q-110 0 -110 127q-2 19 2 84.5t3 82.5l-23 1151q0 66 23.5 102t66.5 36l141 -8h552q82 0 117.5 -23t35.5 -82t-35.5 -82.5t-116.5 -23.5
l-551 1l7 -380q322 0 564 7z" />
    <glyph glyph-name="G" unicode="G" horiz-adv-x="1681" 
d="M1274 0l-250 -20q-487 0 -730 324q-146 193 -146 452q0 200 58.5 357t163.5 257q213 203 555 203q282 0 421 -55q87 -34 87 -115q0 -55 -28 -90.5t-60 -35.5t-50 9q-70 37 -192 53t-209 16t-155 -19.5t-134 -63t-117 -106.5q-112 -142 -112 -371q0 -135 39.5 -241
t104 -172.5t154.5 -109.5q160 -78 380 -78q113 0 172 11q0 269 -8 485l-10 151q0 37 31 69.5t92 32.5t94 -27.5t33 -74.5l-2 -78q-8 -224 -8 -605q-3 -123 -74 -146q-35 -12 -100 -12z" />
    <glyph glyph-name="H" unicode="H" horiz-adv-x="1576" 
d="M213 1348l-15 117q0 55 32.5 82t118.5 27q43 0 67 -32.5t24 -74.5l-6 -197v-221q310 -9 381.5 -9t171 6t142.5 7q1 52 1 295l-12 117q0 55 33 82t119 27q44 0 66 -34.5t22 -72.5l-11 -314l1 -598q0 -278 15 -365t15 -126t-26.5 -66t-97.5 -27t-101 25t-30 79l15 208
l-10 553q-34 1 -154.5 1t-537.5 -10q5 -463 17.5 -578.5t12.5 -170t-25.5 -81t-97 -26.5t-98 24t-26.5 79l7 208q0 51 -13 1066z" />
    <glyph glyph-name="I" unicode="I" horiz-adv-x="794" 
d="M279 1329l-12 118q0 127 153 127q45 0 71 -34t26 -69.5t-9 -89.5q-15 -862 14 -1243q5 -33 5 -71t-26 -67t-96.5 -29t-101 27t-30.5 82l15 206z" />
    <glyph glyph-name="J" unicode="J" horiz-adv-x="1471" 
d="M1204 1433l-3 -346l9 -512q0 -453 -311 -569q-92 -35 -180.5 -35t-148.5 9.5t-125 30t-121 57.5t-101 88q-97 108 -97 291q0 291 149 291q50 0 81 -28t31 -72t-17 -105.5t-17 -94.5q0 -121 96 -186.5t216 -65.5t184 40q136 87 136 393v463q0 116 -8.5 222t-8.5 163
q0 107 124 107q63 0 87.5 -34.5t24.5 -106.5z" />
    <glyph glyph-name="K" unicode="K" horiz-adv-x="1415" 
d="M198 1446q0 67 29.5 97.5t84.5 30.5t89 -28.5t34 -74.5q0 -182 -2 -532l533 504q26 38 88.5 84.5t106.5 46.5t76.5 -27t32.5 -73.5t-18 -77t-38 -46t-55 -35.5q-118 -105 -326 -279.5t-259 -217.5q121 -33 239 -147t207 -252q116 -177 170 -213q26 -17 50 -17t37.5 -0.5
t38 -6t38.5 -14.5q36 -25 36 -67.5t-11.5 -65t-28 -35t-42.5 -19.5q-147 -39 -267 60q-67 55 -119 130.5t-95 140.5q-204 312 -395 362v-112q0 -183 2 -399q4 -37 6 -91q0 -101 -126 -101q-56 0 -83.5 37.5t-27.5 84.5q0 600 -5 1353z" />
    <glyph glyph-name="L" unicode="L" horiz-adv-x="1099" 
d="M879 237q135 0 135 -118q0 -119 -171 -119h-531q-56 0 -85 23.5t-29 87.5l17 118l-15 1194q1 77 27.5 113t91 36t89.5 -27t25 -99v-150q-3 -520 0 -1073q305 0 363 7t83 7z" />
    <glyph glyph-name="M" unicode="M" horiz-adv-x="2027" 
d="M1125 226q0 -94 -123 -94q-70 0 -96 40q-21 32 -28.5 78t-12.5 63q-161 580 -269 869q-53 -147 -163.5 -577t-149.5 -549q-19 -31 -31 -46q-28 -39 -79.5 -39t-86 31.5t-34.5 63.5t15.5 74.5t366.5 1222.5q35 145 58 167q43 44 102 44q77 0 110 -72q20 -44 43 -120
l251 -797l14 -42q83 257 156.5 531t82.5 302t17 53.5t12.5 37t13.5 32.5t18.5 31t23.5 22q24 22 67.5 22t68 -12t38.5 -46q0 -1 13.5 -34t18.5 -47t24.5 -68.5t37.5 -108t52 -156t72 -222.5q116 -363 216 -684q30 -81 30 -114q0 -111 -105 -111q-115 0 -148 161
q-186 684 -315 1047q-47 -133 -129 -426t-137 -443q-15 -41 -15 -84z" />
    <glyph glyph-name="N" unicode="N" horiz-adv-x="1724" 
d="M438 215l6 -113q0 -61 -25 -96t-86 -35t-95.5 25.5t-34 79.5t12.5 86q5 362 5 663t-14 509q-8 50 -8 81q0 97 89 117q37 30 85.5 30t80 -40.5t43.5 -79.5q82 -124 399.5 -524.5t405.5 -530.5q0 668 -10 851t-10 207q0 76 29.5 102.5t77 26.5t69 -11t32.5 -26.5t18 -40.5
q9 -37 9 -93v-1147l8 -150q0 -76 -25 -105.5t-82 -29.5q-111 0 -142 96q-135 184 -400 523.5t-387 502.5l-60 94z" />
    <glyph glyph-name="O" unicode="O" horiz-adv-x="1684" 
d="M229 366q-85 182 -85 412t87.5 412t248 283t375 101t371.5 -102q314 -204 314 -699q0 -225 -84.5 -406.5t-245 -288.5t-368.5 -107t-368 106.5t-245 288.5zM495 362q59 -85 150 -136t202.5 -51t202.5 51t147 136q114 173 114 411q0 312 -164 477q-116 118 -302 118
q-223 0 -348 -161.5t-125 -415t123 -429.5z" />
    <glyph glyph-name="P" unicode="P" horiz-adv-x="1412" 
d="M207 83l10 132l-4 1150q-15 36 -15 83t28.5 80t78.5 33l180 -9l158 9q190 0 339.5 -68t237.5 -203t88 -319q0 -638 -812 -638q-31 -1 -58 0l1 -132l13 -132q0 -48 -38.5 -73t-85.5 -25t-84 30.5t-37 81.5zM623 1351l-192 -4q6 -545 8 -797q108 -6 170 -6t136.5 13.5
t126 36t89.5 56.5t59.5 70t34.5 82q21 76 21 161t-18 141.5t-46 94.5t-68.5 66.5t-80.5 44.5t-87 26q-75 15 -153 15z" />
    <glyph glyph-name="Q" unicode="Q" horiz-adv-x="1742" 
d="M229 366q-85 182 -85 412t87.5 412t248 283t375 101t371.5 -102q314 -204 314 -699q0 -307 -153 -523q60 -60 103 -60h1q15 0 49 14.5t66 14.5t62 -28t30 -87.5t-54.5 -96t-138.5 -36.5q-122 0 -253 136q-176 -136 -397 -136t-381 106.5t-245 288.5zM740 501
q0 112 141 112q106 0 181 -42.5t173 -141.5q76 151 76 344q0 312 -164 477q-116 118 -302 118q-223 0 -348 -161.5t-125 -433.5q0 -235 123 -411q59 -85 150 -136t200 -51q156 0 268 94q-54 62 -97.5 94.5t-86.5 32.5l-46 -3q-39 0 -74 14q-69 27 -69 94z" />
    <glyph glyph-name="R" unicode="R" horiz-adv-x="1572" 
d="M737 405l-297 3v-146q1 -29 11.5 -90t10.5 -103t-37.5 -70t-89.5 -28t-91 39.5t-39 87t6 95.5q0 829 1 1166q-14 38 -14 85t28 82t78 35l182 -10l186 10q313 0 488 -127t175 -389q0 -274 -174 -457q-92 -96 -210 -143q18 -114 81 -188.5t155 -74.5t130 59q36 51 87 51
t81.5 -29.5t30.5 -76.5q0 -88 -95.5 -151.5t-245.5 -63.5q-224 0 -349 210q-63 104 -89 224zM651 1354l-217 -4q-4 -102 -4 -309t9 -418q140 -6 222.5 -6t152.5 16.5t117.5 47.5t81 70.5t51.5 90.5q35 95 35 183.5t-18 136.5t-45 79t-68.5 53t-78.5 33.5t-87 18.5
q-64 8 -151 8zM906 430h1h-1zM907 430l1 1z" />
    <glyph glyph-name="S" unicode="S" horiz-adv-x="1354" 
d="M154 359q6 85 35.5 125.5t87 40.5t89 -26t31.5 -70q0 -14 -5 -50t-3 -56q7 -66 94 -110t197 -44q227 0 284 135q18 43 18 98q0 148 -245 276q-66 34 -139 68t-121 61.5t-80.5 52t-67 61.5t-55.5 77q-47 93 -47 197.5t40 176.5t107 115q137 87 327 87q169 0 289 -60
q129 -64 145 -212v-11q0 -45 -32 -74.5t-84 -29.5t-81 31.5t-33 74.5q-49 81 -216 81q-133 0 -199 -70q-36 -39 -36 -78.5t6 -61.5t13 -39t24 -36.5t27.5 -31.5t36 -29.5t36 -25t41.5 -24.5q39 -22 149.5 -78.5t187.5 -112.5q233 -166 233 -393q0 -258 -235 -365
q-129 -59 -295 -59q-243 0 -405 128q-55 44 -87 110t-32 142v9z" />
    <glyph glyph-name="T" unicode="T" horiz-adv-x="1138" 
d="M445 1320l-309 -2q-46 0 -71 37.5t-25 90.5t32 76t108 23h798q49 0 85 -26t36 -80t-29.5 -89t-71.5 -36l-63 6h-258l-3 -1128l7 -97q0 -125 -121 -125q-72 0 -96 40q-21 36 -21 84v40z" />
    <glyph glyph-name="U" unicode="U" horiz-adv-x="1527" 
d="M1334 1046l4 -304q0 -373 -142.5 -572.5t-428.5 -199.5q-576 0 -578 765v110q4 365 3 501t22 182t83 46q133 0 133 -158q0 -24 -3 -92q-8 -181 -8 -409t3 -283.5t13 -116t26 -107t43.5 -90.5t64.5 -72q82 -62 209 -62q176 0 253.5 140t77.5 442t-5.5 477t-5.5 205
q0 126 116 126q63 0 92 -32.5t29 -78.5l-5 -139q0 -114 4 -278z" />
    <glyph glyph-name="V" unicode="V" horiz-adv-x="1344" 
d="M570 34.5q-6 13.5 -65.5 182t-257.5 665.5t-207.5 537t-9.5 64t29 56t92.5 32t91.5 -64q182 -446 432 -1124q293 769 386 1041q4 52 39.5 101t88 49t89.5 -34t37 -88.5t-55 -141.5l-1 -2q-133 -306 -249 -622t-221 -583q4 -22 4 -34q0 -99 -126 -99q-56 0 -79 34
q-12 17 -18 30.5z" />
    <glyph glyph-name="W" unicode="W" horiz-adv-x="1995" 
d="M52 1461q0 109 122 109q34 0 58.5 -18t46.5 -77q275 -768 381 -1095q26 74 66 192q91 271 139 395q-15 30 -66 175.5t-67 177.5q-44 79 -44 134t27.5 82.5t82 27.5t82.5 -46.5t61.5 -134.5t42.5 -120.5t13 -44.5q35 77 60 167.5t31.5 107.5t19.5 37q27 41 84.5 41
t87.5 -32.5t30 -80.5t-58 -164.5t-132 -303.5q43 -110 221 -616q40 114 158.5 478.5t194.5 561.5q14 71 43.5 112t87 41t87.5 -29t30 -71.5t-6.5 -66.5t-30.5 -84.5t-54.5 -139.5t-53.5 -141t-55.5 -152.5t-50.5 -140t-55 -156t-52 -148.5q-26 -75 -118 -344v-16
q0 -47 -35 -77.5t-80 -30.5t-63 8q-36 14 -52.5 71t-31 97t-33.5 90.5t-32.5 88t-63.5 183.5t-79 222q-15 -42 -93 -280t-123 -358q2 -12 2 -30q0 -43 -37 -67.5t-79 -24.5t-64.5 12.5t-34.5 35.5q-20 38 -27 82q-287 794 -454 1227q-34 88 -34 134z" />
    <glyph glyph-name="X" unicode="X" horiz-adv-x="1241" 
d="M49 108q0 33 51 97q250 370 398 617q-115 180 -252 377.5t-148.5 224.5t-11.5 39q0 46 33 77.5t80 31.5t82 -43q44 -59 160 -247.5t179 -289.5q158 258 279 470q25 56 48.5 80t72 24t83.5 -31.5t35 -83t-68 -128.5q-218 -331 -335 -512q336 -546 405 -619
q52 -55 52 -104.5t-31 -83.5t-110 -34q-20 0 -51.5 30t-52.5 80v1q-9 29 -333 554q-43 -72 -163 -280.5t-151 -261.5t-42 -71q-33 -52 -62 -52q-56 0 -101.5 36t-45.5 102z" />
    <glyph glyph-name="Y" unicode="Y" horiz-adv-x="1226" 
d="M500 69l10 378q0 104 -4 218q-240 403 -426 671q-60 86 -60 131.5t34 75.5t91 30q67 0 126 -143q63 -126 170 -282.5t144 -215.5l32 -53l31 53q250 386 315 512h-1q26 65 51 97t70 32q123 0 123 -116q0 -63 -56 -115q-350 -542 -424 -679q-5 -81 -5 -121v-56l15 -413
q0 -103 -117 -103q-52 0 -85.5 29t-33.5 70z" />
    <glyph glyph-name="Z" unicode="Z" horiz-adv-x="1354" 
d="M277 0q-145 0 -145 122q0 26 23.5 65.5t53.5 69.5q280 438 442 705t232 380l-596 -12q-144 0 -144 113q0 55 33 78.5t101 23.5q627 0 744 2q22 18 81.5 18t85 -34t25.5 -64.5t-10.5 -52t-21 -37t-28.5 -41t-81 -123.5t-292 -466.5t-339 -541.5l557 6q45 12 115 12
q124 0 124 -114q0 -57 -43 -83t-155 -26h-762z" />
    <glyph glyph-name="bracketleft" unicode="[" horiz-adv-x="848" 
d="M551 1611l-74 2h-100l-3 -1705q66 0 100 2l61 2q52 0 81.5 -36t29.5 -74.5t-21 -71.5q-31 -49 -117 -49q-17 0 -227 8q-132 0 -132 165l13 839v102l-12 867q0 156 118 156h224l98 6q97 0 97 -103q0 -110 -136 -110z" />
    <glyph glyph-name="backslash" unicode="\" horiz-adv-x="1015" 
d="M698 -59q-569 1586 -580 1631t-11 74t32 57.5t77 28.5q78 0 100 -67q523 -1464 586 -1650q38 -50 38 -97t-37 -82.5t-81 -35.5t-66.5 13t-33.5 34q-17 35 -19 60t-5 34z" />
    <glyph glyph-name="bracketright" unicode="]" horiz-adv-x="848" 
d="M370 1613l-74 -2q-136 0 -136 110q0 103 97 103l98 -6h224q118 0 118 -156l-12 -867v-102l13 -839q0 -165 -132 -165q-210 -8 -233 -8t-56.5 8t-54.5 41t-21 71.5t29.5 74.5t81.5 36l61 -2q34 -2 100 -2l-3 1705h-100z" />
    <glyph glyph-name="asciicircum" unicode="^" horiz-adv-x="1545" 
d="M254.5 359.5q-31.5 26.5 -31.5 62t7 50.5q63 124 196.5 464t213.5 529q45 81 114 81q71 0 114 -80q152 -351 371 -906q21 -23 35 -65.5t14 -76t-31 -59.5t-76 -26q-100 0 -159 181l-271 663q-52 -119 -159 -398t-159 -397q-42 -49 -94.5 -49t-84 26.5z" />
    <glyph glyph-name="underscore" unicode="_" horiz-adv-x="1348" 
d="M-168 -257q0 57 35 78t133 21h1348q95 0 117 -15q44 -30 44 -80q0 -94 -161 -94h-1348q-168 0 -168 90z" />
    <glyph glyph-name="grave" unicode="`" horiz-adv-x="676" 
d="M60.5 1716q-10.5 23 -10.5 57.5t32 68t76 33.5t105 -56q174 -167 208 -194q22 -9 49.5 -40t27.5 -74t-33 -75t-73 -32t-62.5 10t-35 21.5t-42.5 44.5v-1q-126 126 -178.5 170t-63 67z" />
    <glyph glyph-name="a" unicode="a" horiz-adv-x="1594" 
d="M1338 1004l-9 -544q0 -209 5 -237q22 5 59 24q39 15 73.5 15t60.5 -35.5t26 -78.5q0 -73 -61 -94q-18 -6 -59.5 -22t-65.5 -24q-69 -23 -126 -23q-121 0 -130 175q-66 -82 -176 -135.5t-257 -53.5t-281.5 82t-208.5 225.5t-74 299.5t46.5 275t125.5 203.5t189.5 134
t232.5 49.5t226 -50.5t168 -123.5q-1 18 -1 64.5t30.5 79.5t87 33t92.5 -34t36 -67zM391 817q-47 -98 -47 -212.5t42 -208t126.5 -152t180.5 -58.5t168 32.5t122 86.5q102 111 129 250v88q-25 136 -121 254q-48 59 -120 96t-167 37t-180.5 -57.5t-132.5 -155.5z" />
    <glyph glyph-name="b" unicode="b" horiz-adv-x="1529" 
d="M192 1569l-81 -6q-40 0 -68 28t-28 81t27 81.5t68 28.5l63 -8l164 8q41 0 68 -28t27 -75q0 -101 -4 -327.5t-4 -275.5q66 71 171.5 113.5t220.5 42.5q269 0 434 -170.5t165 -453.5q0 -309 -180 -476q-175 -161 -461 -161q-102 0 -199.5 38t-162.5 99v-42q0 -47 -36.5 -67
t-84.5 -20t-70.5 18t-22.5 68l-2 392l2 673q0 324 -6 439zM767 186q184 0 296 104t112 305t-103 311t-270 110t-283 -121.5t-116 -304.5t110.5 -293.5t253.5 -110.5z" />
    <glyph glyph-name="c" unicode="c" horiz-adv-x="1385" 
d="M1219 1083l20 -179q0 -51 -26 -83t-67.5 -32t-64.5 13t-32.5 27t-23.5 42t-23.5 43t-32 37t-50.5 35q-68 30 -173 30t-179 -35t-120 -95q-95 -124 -95 -296q0 -113 58 -216q67 -115 185 -162q66 -26 146 -26t166.5 38t137.5 104q47 59 94 56q111 -7 111 -99v-10
q-5 -69 -70 -142q-162 -162 -450 -162q-132 0 -248 50.5t-196 136.5t-126 202t-46 242.5t38.5 237t115 199.5t204.5 141t284 52t248 -59q17 97 119 97q47 0 74.5 -25.5t27.5 -68.5z" />
    <glyph glyph-name="d" unicode="d" horiz-adv-x="1578" 
d="M1010 1776l250 5q42 0 66 -29t24 -69.5t-9 -60.5q-8 -348 -8 -820t7 -555l18 11q57 33 91.5 32.5t64.5 -26.5t30 -72q0 -84 -69 -111q-49 -23 -86.5 -43.5t-43 -23t-17.5 -9t-18.5 -9t-15.5 -5.5q-20 -6 -31 -6q-89 0 -122 167q-81 -82 -201.5 -131.5t-247.5 -49.5
t-235 49t-181 134q-157 179 -157 446q0 178 78 323t215.5 227t281.5 82q287 0 422 -177q0 183 -4 507h-85l-92 -10q-39 0 -71 34t-32 86t26.5 81t63.5 29t61 -6h27zM1115 492l-1 181q-32 147 -139.5 244.5t-261.5 97.5t-262.5 -115.5t-108.5 -299.5q0 -107 43 -200.5
t128.5 -153.5t209.5 -60t243 85t149 221z" />
    <glyph glyph-name="e" unicode="e" horiz-adv-x="1402" 
d="M136.5 415q-22.5 85 -22.5 199t48 236t132 206q178 176 448 176q191 0 328.5 -108t173.5 -281q39 -33 39 -87q0 -98 -107 -125q-150 -38 -429.5 -96.5t-389.5 -83.5q52 -198 240 -251q50 -14 103 -14q139 0 230.5 40.5t121.5 83.5q20 31 50.5 53t67.5 22t65 -29.5
t28 -80.5t-66 -111q-208 -193 -498 -193q-114 0 -212 37.5t-165.5 99.5t-115 142t-70 165zM340 636q107 25 340.5 74t357.5 79q-36 98 -117 162.5t-186 64.5q-168 0 -274 -103.5t-121 -276.5z" />
    <glyph glyph-name="f" unicode="f" horiz-adv-x="964" 
d="M280 89l5 79l-17 829h-31q-44 0 -75.5 25t-31.5 78t27.5 81.5t67.5 28.5l37 -7q-7 114 -7 164q0 212 103.5 313.5t289.5 101.5q214 0 282 -141q17 -34 17 -72.5t-30 -65.5t-69 -27t-60 13t-58 52t-101 39q-154 0 -154 -265q0 -37 7 -107q68 1 249 1q47 0 73.5 -29
t26.5 -72t-32.5 -77t-87.5 -34h-219l9 -794q25 6 72.5 22t81 16t63 -30t29.5 -72q0 -89 -102 -112q-84 -22 -148 -39t-106.5 -17t-76.5 27t-34 91z" />
    <glyph glyph-name="g" unicode="g" horiz-adv-x="1507" 
d="M1326 959l-7 -856q0 -305 -165 -454q-159 -143 -426 -143q-101 0 -213 32t-192.5 89t-80.5 112t29.5 94.5t76.5 39.5t80.5 -28.5t55 -45.5t60.5 -39q73 -42 190 -42q166 0 282 124q83 88 83 218q0 9 -1 30.5t-1 32.5q-124 -152 -392 -152q-169 0 -303.5 82t-209.5 225.5
t-77 321.5v6q0 138 44.5 255.5t124.5 198.5q171 172 433 172t405 -157q26 86 95.5 86t93 -29.5t23.5 -82.5zM445.5 907q-107.5 -123 -107.5 -305.5t102.5 -299t281 -116.5t283 115t104.5 299q0 182 -90 302q-96 128 -281 128t-292.5 -123z" />
    <glyph glyph-name="h" unicode="h" horiz-adv-x="1555" 
d="M205 72l14 204q0 558 -12 1294q-10 1 -33.5 -2t-52 -3t-60 27t-31.5 80t27 81.5t68 28.5l63 -8l163 8q42 0 68.5 -28t26.5 -86t-7 -539l-2 -51q76 67 173 110.5t196 43.5q257 0 393.5 -152.5t136.5 -460.5q0 -197 -92 -385q61 21 97 21t61 -21q40 -34 40 -77
q0 -84 -80 -111q-65 -23 -166 -49t-150.5 -26t-78.5 30.5t-29 82.5t51 118q53 75 87.5 190.5t34.5 226.5q0 196 -75.5 296.5t-242.5 100.5q-94 0 -191 -61.5t-168 -150.5q-2 -157 -2 -308t1 -290q2 0 24 8q25 10 60.5 10t63.5 -27t28 -70t-24 -74t-48 -36t-50.5 -10.5
t-93 -20.5t-105.5 -15q-83 0 -83 101z" />
    <glyph glyph-name="i" unicode="i" horiz-adv-x="833" 
d="M538 952q0 -223 -2 -469.5t0 -290.5q20 1 53 13t69 12t54 -20q28 -31 28 -77q0 -71 -106 -104q-166 -45 -208 -45q-115 0 -115 104q0 26 7.5 79.5t7.5 295.5t-6 558q-67 -5 -128 -5q-124 0 -124 108q0 51 27.5 79.5t68.5 28.5l149 -7l144 7q95 0 95 -102zM384 1380
q-58 29 -58 90q0 30 18 93t20 95.5t27 61.5q36 44 100 39q82 0 97 -101q1 -7 1 -30.5t-15.5 -60t-24 -81t-12.5 -57t-17 -26.5q-59 -60 -136 -23z" />
    <glyph glyph-name="j" unicode="j" horiz-adv-x="762" 
d="M549 1114l-10 -151q0 -337 8 -1012q0 -13 10 -168q0 -90 -63 -118v1q-242 -120 -311 -147q-57 -40 -102 -40q-118 0 -118 116q0 73 84 101q113 34 285 122q-3 216 -3 543t-18 649q-92 -7 -141 -7q-114 0 -114 108q0 49 28 78t69 29l105 -5l187 4q104 0 104 -103z
M346 1379q-58 28 -58 89q0 30 18 93.5t20 83.5q8 115 129 115q82 0 95 -102q1 -7 1 -31.5t-15 -60t-24 -80.5t-13 -57q-10 -31 -54 -51q-24 -11 -49 -11t-50 12z" />
    <glyph glyph-name="k" unicode="k" horiz-adv-x="1488" 
d="M208 70l14 204q0 560 -12 1296q-28 -5 -71 -5t-74.5 27t-31.5 80t27 81.5t68 28.5l63 -8l163 8q42 0 68.5 -28t26 -63t-4.5 -73q-10 -92 -15 -653q83 115 206.5 191t292.5 76t268.5 -95.5t99.5 -262.5q0 -124 -68.5 -217t-170.5 -142q71 -60 106 -189.5t78 -129.5l108 19
q45 0 74 -30.5t29 -82.5q0 -133 -234 -133q-94 0 -144 44q-55 47 -75 95q-28 67 -43 120t-20.5 70t-17 44t-22.5 39q-28 32 -64 32q-78 0 -114.5 24t-36.5 79t34.5 83.5t73.5 28.5t64 -5q210 81 210 233q0 90 -53 128.5t-157 38.5q-132 0 -253.5 -125t-170.5 -293l3 -129
v-26q0 -18 1.5 -83t2.5 -160q6 1 20 5q28 10 45 10q111 0 111 -104q0 -80 -74 -104q-35 -12 -69.5 -15.5t-83 -15.5t-90.5 -12q-87 0 -87 99z" />
    <glyph glyph-name="l" unicode="l" horiz-adv-x="790" 
d="M248 1573l-161 -8q-41 0 -73 27t-32 79.5t27.5 81.5t67.5 29l141 -8l184 8q44 0 69.5 -27.5t25.5 -67.5t-11.5 -91t-12.5 -77v-1311q81 24 108 24q105 0 105 -110q0 -80 -118 -108l-100 -26q-55 -17 -104 -17t-79.5 40.5t-30.5 91.5l7 303q0 395 -13 1167z" />
    <glyph glyph-name="m" unicode="m" horiz-adv-x="2349" 
d="M282 73l15 204q0 161 -13 737q-28 -5 -70.5 -5t-74.5 27t-32 80t27 81.5t69 28.5l63 -8l163 8q76 0 76 -103v-20q156 129 331 129q250 0 387 -143q82 68 178.5 105.5t179.5 37.5q257 0 408 -150t151 -423q0 -90 -21.5 -216t-53.5 -214q20 6 44 6t47 -12.5t33 -32.5
q18 -35 18 -81.5t-43 -67.5t-198 -54q-67 -18 -86 -18q-61 0 -91 32.5t-30 87.5t51 114q45 73 73.5 205.5t28.5 250.5q0 167 -83.5 262.5t-252.5 95.5q-83 0 -138.5 -23t-111.5 -74q41 -112 41 -235t-24 -251t-65 -218q64 16 82.5 16t40.5 -12.5t31 -33.5q18 -37 18 -79
t-27.5 -65t-62.5 -27q-119 -14 -139 -24q-43 -22 -99 -22t-86.5 39.5t-30.5 90t37 117t66.5 197.5t29.5 246q0 171 -71 264.5t-240.5 93.5t-321.5 -153q-1 -135 -1 -399t3 -257q59 17 69 17q110 0 110 -104q0 -95 -116 -115q-17 -3 -39.5 -6t-72.5 -17t-90 -14
q-86 0 -86 104z" />
    <glyph glyph-name="n" unicode="n" horiz-adv-x="1622" 
d="M283 74l14 205q0 144 -3 291v11q-1 23 -2 50q-2 150 -7 383q-28 -5 -71 -5t-74.5 27t-31.5 80t26.5 81.5t68.5 28.5l63 -8l164 8q42 0 68.5 -27.5t26.5 -66t-3 -68.5q178 168 415.5 168t368 -159.5t130.5 -453.5q0 -181 -80 -373q69 20 98 20q93 0 93 -94.5t-81 -122.5
l-108 -25q-38 -12 -78 -26q-83 -27 -99 -27h-20q-45 0 -70.5 37.5t-25.5 98t41 109.5q102 127 102 403q0 199 -94 310q-74 87 -193 87t-225 -62.5t-183 -154.5q-2 -120 -4 -219.5t-2 -223t2 -146.5l27 8q28 8 40 8q110 0 110 -104q0 -80 -72 -104q-36 -12 -79 -16.5
t-88.5 -17.5t-82 -13t-59 25.5t-22.5 77.5z" />
    <glyph glyph-name="o" unicode="o" horiz-adv-x="1460" 
d="M158.5 344.5q-49.5 119.5 -49.5 274.5t83 299.5t226 229t319 84.5t319 -85t219 -227.5t76 -322t-85.5 -325.5t-226.5 -223.5t-288 -77.5t-260 46t-198 127t-134.5 200.5zM445 897.5q-105 -118.5 -105 -302t105 -296.5t278.5 -113t285.5 110.5t112 296t-106 304.5
t-285.5 119t-284.5 -118.5z" />
    <glyph glyph-name="p" unicode="p" horiz-adv-x="1504" 
d="M207 1027l-62 -7q-42 0 -73.5 24.5t-31.5 82.5t26.5 79.5t82.5 21.5l90 -6l92 6q96 0 96 -89q0 -15 -4 -43.5t-5 -40.5q64 81 167 129t224 48q262 0 421.5 -166.5t159.5 -452.5q0 -182 -68.5 -326t-205.5 -230t-323 -86q-109 0 -208 39.5t-166 110.5l4 -193
q4 -238 4 -352q0 -87 -113 -87q-48 0 -74.5 18.5t-26.5 67.5v975q0 424 -6 477zM417 525q23 -146 119 -242.5t221 -96.5q198 0 296.5 110.5t98.5 299.5t-97 304.5t-248 115.5t-260.5 -118.5t-129.5 -281.5v-91z" />
    <glyph glyph-name="q" unicode="q" horiz-adv-x="1536" 
d="M114 603q0 127 47 242.5t127.5 200.5t195.5 135.5t245 50.5q263 0 413 -176q31 106 103 106q58 0 89 -33t31 -84t-12 -100q0 -35 -2.5 -110.5t-3.5 -1078.5q82 53 128 53t77 -26t31 -76t-20 -75t-72 -56l-111 -52q-36 -29 -63 -32t-70 -3t-80 40.5t-37 122.5v486
q-75 -77 -185.5 -122t-234.5 -45q-261 0 -428.5 175t-167.5 457zM335 603q0 -183 110 -300t264.5 -117t268.5 94t149 241l-4 174q-35 135 -140 228t-240.5 93t-226.5 -60t-136 -153t-45 -200z" />
    <glyph glyph-name="r" unicode="r" horiz-adv-x="1252" 
d="M217 1007l-12 116q0 52 38 80.5t97 28.5t88.5 -32t29.5 -65t-8 -79q237 58 429 120q32 56 92 56t93 -28.5t33 -71.5l-4 -71q-2 -24 -2 -62l11 -277q0 -44 -38 -63.5t-90 -19.5t-78 34t-26 75t1.5 110.5t1.5 93.5q-66 -16 -428 -96v-653l30 9q53 18 79 20
q42 -3 72.5 -30.5t30.5 -74.5t-28 -82.5t-69 -38.5q-11 -1 -99.5 -18t-133.5 -17t-79 31.5t-34 86.5l3 147v771z" />
    <glyph glyph-name="s" unicode="s" horiz-adv-x="1249" 
d="M1095 951q0 -88 -103 -88q-39 0 -70.5 24.5t-44.5 58.5q-111 93 -270 93q-104 0 -170.5 -37.5t-66.5 -98.5q0 -84 127 -135q65 -26 161.5 -52.5t144 -41t120.5 -48t111 -70t68 -96t30 -140t-33 -146t-83 -103t-119 -61.5q-116 -39 -237.5 -39t-219 28.5t-166 71
t-110.5 93.5t-42 94.5t36.5 73.5t71.5 30t56 -10t30.5 -21t26.5 -35q83 -125 318 -125q107 0 179.5 37.5t72.5 102.5q0 61 -47 99q-52 41 -103 58q-84 27 -149 43.5t-101.5 26.5t-89.5 29t-87 38t-73 49t-62 64q-53 80 -53 176t42 161.5t112 102.5q138 74 312 74
q83 0 142.5 -15t135.5 -46q9 35 34.5 61t62.5 26q103 0 103 -86l-6 -169q9 -21 9 -52z" />
    <glyph glyph-name="t" unicode="t" horiz-adv-x="1000" 
d="M496 1214l257 7q43 0 70.5 -28t27.5 -85t-22 -88t-83 -31l-127 8l-121 -1l7 -789q42 6 67 11.5t47 9.5t32.5 7t28.5 8q28 8 65 23q54 28 95 28t69.5 -33t28.5 -76.5t-28.5 -79t-75 -45t-148.5 -34.5q-233 -55 -282 -55h-3q-47 0 -84 24t-36 81l4 214l-6 705l-121 -1
q-43 0 -67.5 34t-24.5 69.5t3.5 51.5t8 27t16 18.5t19.5 11.5q17 7 57 7h108v97l-1 31l-11 117q0 52 28 78t90 26t94 -22t32 -81l-14 -164v-81z" />
    <glyph glyph-name="u" unicode="u" horiz-adv-x="1437" 
d="M1271 199l7 -114q0 -61 -23.5 -86t-110.5 -28q-54 0 -80.5 36t-26.5 76q0 1 5 34q-86 -74 -183 -110t-181 -36q-258 0 -389.5 146.5t-131.5 428.5q0 224 87 412q-19 -6 -37 -6q-102 0 -102 112q0 56 32.5 77t81 30.5t111.5 35t115.5 25.5t82 -31.5t29.5 -86.5t-55.5 -117
t-90 -191.5t-34.5 -259.5q0 -366 306 -366q94 0 192 50.5t176 132.5q4 149 4 307t-6 308q-65 -19 -105.5 -19t-71.5 29.5t-31 84.5q0 34 10 47.5t15 20.5t20 13.5t22.5 10t29 9t30.5 7t33 6t79 25t86 20.5t49.5 -9t28 -20.5t14.5 -36.5q6 -30 6 -112.5t1 -158.5z" />
    <glyph glyph-name="v" unicode="v" horiz-adv-x="1307" 
d="M1007 1212l162 3q40 0 76 -26t36 -71q0 -100 -116 -109q24 -80 24 -161t-19.5 -143t-57.5 -121q-59 -91 -127.5 -167.5t-89.5 -102t-53 -70.5q-60 -86 -62 -165q-2 -57 -20.5 -75.5t-35.5 -24.5q-22 -8 -59 -8t-74 27.5t-38 65.5q-1 70 -42.5 135t-104 132.5t-88 98
t-63 83.5t-57.5 99q-51 116 -51 207t15 177h-21q-43 0 -81.5 29t-38.5 83t30.5 81.5t62.5 27.5t51 -1l35 -1q37 -2 77 -2t88.5 0.5t69 -24.5t20.5 -60t-33 -76t-40 -60q-18 -66 -18 -131.5t10 -105t21 -66t38 -62.5q32 -42 113.5 -128.5t119.5 -163.5q50 100 141 191
q107 110 125 151q38 85 38 149.5t-9 104.5q-11 47 -41 91q-34 43 -34 93q0 96 121 96z" />
    <glyph glyph-name="w" unicode="w" horiz-adv-x="1770" 
d="M91 1001q-43 69 -43 120.5t37 81t68.5 29.5t45.5 -2.5t25 -10.5t17.5 -13t14.5 -22q66 -146 192.5 -466.5t154.5 -388.5l177 487q-49 118 -85 183.5t-36 118t32.5 83.5t68 31t55 -8.5t33.5 -26.5q20 -27 30 -55t16 -42q47 132 134 132q43 0 76.5 -29.5t33.5 -70
t-30 -94.5l-99 -225l194 -484l261 701q24 112 49 142q49 60 103 60t88 -33t34 -67t-10 -57.5t-29 -52.5t-27 -46.5t-122.5 -315t-159 -400t-58 -149t-20 -63.5t-21.5 -39q-26 -38 -91 -38q-78 0 -150 173q-23 57 -73 191t-80 208q-17 -44 -54 -133q-74 -180 -103.5 -275.5
t-56 -129.5t-77.5 -34t-84 37t-73 130q-291 745 -358 864v-1z" />
    <glyph glyph-name="x" unicode="x" horiz-adv-x="1297" 
d="M186 988q-65 69 -65 125t37 87.5t73 31.5q76 0 117 -90l289 -370l250 342v-1q37 65 65 92t71.5 27t81 -34.5t37.5 -87.5t-116 -188q-18 -24 -42 -55.5t-84 -110.5t-125 -164q72 -91 119.5 -146t66 -76.5t49 -54t40.5 -42.5q66 -70 85 -91.5t30.5 -59t11.5 -58.5
q0 -93 -119 -93q-13 0 -45.5 18.5t-44.5 29.5q-56 65 -133 170.5t-185 235.5q-42 -57 -127 -171t-127 -172q-15 -43 -45.5 -77t-81.5 -34q-34 0 -66 17q-62 34 -62 99q0 39 10 57t52 64q150 164 310 388q-55 62 -161.5 193t-165.5 199z" />
    <glyph glyph-name="y" unicode="y" horiz-adv-x="1457" 
d="M1283 260l6 -188q0 -375 -234 -498q-139 -73 -358 -73q-126 0 -237.5 35t-181.5 99.5t-70 142.5q0 40 31 77.5t90 37.5q37 0 69 -36q9 -10 28 -32q54 -68 119.5 -89.5t154 -21.5t150.5 18t112 59q103 83 109 293q0 1 -0.5 3.5t-0.5 4.5q-130 -121 -344 -121
q-319 0 -478 201q-118 152 -118 412q0 76 25.5 176.5t73.5 183.5q-6 -1 -19 -1q-44 0 -75.5 31t-31.5 75t36.5 74.5t110 46.5t151 39t114.5 23t66.5 -28t29.5 -81t-45 -86q-82 -33 -148.5 -175.5t-66.5 -261t30 -200.5t83 -128q102 -90 258 -90q250 0 346 164v631
q-84 -28 -125.5 -28t-75.5 24t-34 76q0 99 106 116l155 44l-1 -1q45 24 76.5 24t44 -2.5t33.5 -11.5q45 -19 45 -102q0 -21 -2.5 -49t-6.5 -807z" />
    <glyph glyph-name="z" unicode="z" horiz-adv-x="1369" 
d="M167 972l-14 166q0 39 31.5 71.5t87.5 32.5t91 -32q18 2 30 2h663q56 0 92 -29t36 -85.5t-91 -191.5q-94 -129 -329 -379t-306 -336h49q414 0 505 29q27 9 37 12q3 9 23 73.5t35 98.5q20 46 61 46t87 -18t64 -44.5t18 -45.5t-10 -42.5t-39 -69.5q-38 -62 -52 -110
t-22 -65l-15 -39q-26 -57 -86 -57t-96 40l-667 -9q-96 0 -133.5 35.5t-37.5 98.5t29 91q86 104 341.5 388.5t332.5 399.5l-104 -3q-271 -7 -387 -7h-10l8 -126q0 -39 -31.5 -68.5t-77 -29.5t-82 31t-36.5 71z" />
    <glyph glyph-name="braceleft" unicode="{" horiz-adv-x="1014" 
d="M301 646l-64 -3q-52 0 -85.5 31t-33.5 86t30 83.5t79 28.5l63 -6q107 0 107 136l-32 399q0 329 115 411q57 41 155 41q79 0 137 -19q107 -37 107 -116q0 -101 -98 -101q-39 0 -80 15t-64 15q-55 0 -55 -147.5t11.5 -281.5t11.5 -215t-21.5 -148.5t-62.5 -99.5
q42 -24 71.5 -82.5t29.5 -134.5t-13 -265t-13 -284t16 -95q21 0 68.5 12.5t84 11.5t61.5 -38t25 -75t-22 -65.5t-57 -40.5q-62 -23 -121.5 -23t-96.5 5t-73.5 20.5t-58.5 42.5q-50 61 -50 188q0 16 13 221.5t13 371.5q0 121 -97 121z" />
    <glyph glyph-name="bar" unicode="|" horiz-adv-x="845" 
d="M518 -179l13 -71q0 -38 -27.5 -71.5t-85 -33.5t-90 26.5t-32.5 71.5q0 865 7 1884q0 102 127 102q43 0 64.5 -31t23.5 -68q2 -171 0 -1809z" />
    <glyph glyph-name="braceright" unicode="}" horiz-adv-x="1014" 
d="M764 628l-64 3q-97 0 -97 -121q0 -166 13 -371.5t13 -246.5t-13.5 -88t-36 -74.5t-59.5 -43.5q-60 -25 -126.5 -25t-98 5t-66.5 18t-57 40.5t-22 65.5t25 75t61.5 38t84 -11.5t68.5 -12.5q16 0 16 95t-13 284t-13 265t29.5 134.5t71.5 82.5q-41 32 -62.5 99.5
t-21.5 148.5t11.5 215t11.5 281.5t-55 147.5q-24 0 -64.5 -15t-79.5 -15q-98 0 -98 101q0 79 89 109q76 26 164.5 26t146.5 -41q114 -82 114 -411l-32 -399q0 -136 107 -136l63 6q49 0 79 -28.5t30 -83.5t-33.5 -86t-85.5 -31z" />
    <glyph glyph-name="asciitilde" unicode="~" horiz-adv-x="1521" 
d="M149 480q0 143 95 239.5t231 96.5q113 0 189 -50q57 -38 104 -85t64.5 -62.5t45.5 -35.5q52 -38 102 -38t76.5 33.5t31 86.5t35.5 87t85 34t86.5 -34t30.5 -90q-3 -141 -93.5 -234t-216.5 -93q-189 0 -317 121q-18 17 -47 46.5t-43 42.5t-37 30q-43 32 -96 32
q-77 0 -99 -153q-6 -40 -35.5 -63t-73.5 -23t-81 30t-37 82z" />
    <glyph glyph-name="uni00A0" unicode="&#xa0;" horiz-adv-x="769" 
 />
    <glyph glyph-name="cent" unicode="&#xa2;" horiz-adv-x="1506" 
d="M180 576q0 260 133 424.5t371 192.5q13 130 18 189q9 104 115 104q35 0 72 -30t38 -69l-21 -204q99 -23 184 -75q27 40 75.5 40t87.5 -35.5t39 -76t-1 -64t-5 -56.5t-12.5 -56.5t-22.5 -45.5q-29 -45 -89 -45q-24 0 -55 18.5t-49 44.5q-57 101 -177 137l-33 -261
q-38 -299 -62 -512q81 5 158 41.5t112 97.5q11 41 40 60.5t64.5 19.5t80 -33t44.5 -73q-11 -68 -59 -125.5t-110.5 -94t-133.5 -61.5q-131 -48 -212 -48h-7q-5 -47 -14 -159q-4 -48 -39 -74t-76.5 -26t-76.5 28.5t-31 77.5q11 120 20 193q-167 63 -266.5 210t-99.5 346z
M404 583q0 -112 45.5 -198t123.5 -135l32 261q35 292 54 460q-255 -58 -255 -388z" />
    <glyph glyph-name="sterling" unicode="&#xa3;" horiz-adv-x="1426" 
d="M99 653.5q-33 31.5 -33 73.5t30 76.5t83 34.5h87q-44 147 -44 262t39.5 205t109.5 147q144 119 366 119q216 0 339 -111q91 -82 91 -226q0 -139 -99 -228q-50 -45 -109 -45t-90.5 31t-31.5 81.5t26.5 85t72.5 35.5q7 25 7 44q0 57 -60 87.5t-133 30.5t-124 -15t-92 -45
q-89 -62 -89 -178.5t59 -277.5q93 1 273 1q52 0 82 -34t30 -75t-33.5 -73.5t-89.5 -32.5q-107 0 -191 -1q20 -75 20 -167.5t-28 -160.5q50 -8 120 -34t93 -33q78 -26 157.5 -26t108.5 61q17 35 47 55t67 20t69 -29.5t32 -82.5t-32.5 -101t-83.5 -77q-106 -62 -218.5 -62
t-256.5 54q-5 2 -24.5 8.5t-26 9t-24 8t-26 7.5t-24.5 5.5t-27 5.5q-33 4 -52.5 4t-55.5 -4q-114 -95 -203 -95q-50 0 -93 30.5t-43 77.5t17 74.5t41.5 46t57.5 32.5q60 27 114 35q70 89 70 189q0 51 -26 147q-55 -1 -134 -1t-112 31.5z" />
    <glyph glyph-name="yen" unicode="&#xa5;" horiz-adv-x="1525" 
d="M658 422l-1 175q-219 0 -265 1q-105 1 -105 100q0 42 30 66t64 24h207q-130 206 -226.5 333.5t-130 175t-40.5 58.5q-19 30 -19 70t34 69t89 29t126 -108q308 -477 344 -535l355 548q46 78 75 90q14 6 46 6t71.5 -29t39.5 -79q0 -35 -17 -57q-32 -42 -41 -49
q-225 -308 -352 -519l122 3l72 12q54 0 78 -32.5t24 -74.5q0 -102 -97 -102h-268q-2 -114 -2 -173q165 5 197 7l70 13q104 0 104 -104t-98 -104h-271q0 -24 2 -71q8 -66 8 -105t-26.5 -72.5t-82.5 -33.5t-90 34.5t-34 70t8 96.5l1 81q-217 0 -269 1q-100 0 -100 100
q0 43 30.5 67t64.5 22q82 -4 273 -4z" />
    <glyph glyph-name="copyright" unicode="&#xa9;" horiz-adv-x="2200" 
d="M232.5 222.5q-66.5 168.5 -66.5 367t59.5 375.5t170 310.5t283 210.5t376 77t362 -51.5t266 -141t181.5 -212.5q139 -235 139 -561q0 -470 -265 -717q-231 -215 -635 -215q-210 0 -387 71t-297 194.5t-186.5 292zM382 569q0 -150 46.5 -282.5t137.5 -229.5
q193 -204 564 -204q194 0 344 94.5t230.5 262t80.5 393t-82 403.5t-244 278t-388 100q-414 0 -587 -326q-102 -195 -102 -489zM1520 863q0 -142 -116 -142q-76 0 -104 55t-88 85t-126.5 30t-119 -24.5t-83.5 -66.5q-63 -85 -63 -202t81 -189t200 -72t206 94q40 41 91.5 41
t81.5 -31t30 -79q0 -11 -8 -33.5t-17 -33.5q-81 -86 -172.5 -125.5t-212.5 -39.5q-216 0 -363.5 131t-147.5 345t138.5 352t361.5 138q151 0 261 -80q28 16 72 16q98 0 98 -169z" />
    <glyph glyph-name="uni00AD" unicode="&#xad;" 
d="M945 609l-125 1q-64 0 -616 6q-99 0 -99 126q0 56 34 72.5t108 16.5l621 -1q30 11 72.5 11t72.5 -26t30 -84t-26.5 -90t-71.5 -32z" />
    <glyph glyph-name="registered" unicode="&#xae;" horiz-adv-x="2200" 
d="M232.5 222.5q-66.5 168.5 -66.5 367t59.5 375.5t170 310.5t283 210.5t376 77t362 -51.5t266 -141t181.5 -212.5q139 -235 139 -561q0 -470 -265 -717q-231 -215 -635 -215q-210 0 -387 71t-297 194.5t-186.5 292zM382 569q0 -150 46.5 -282.5t137.5 -229.5
q193 -204 564 -204q194 0 344 94.5t230.5 262t80.5 393t-82 403.5t-244 278t-388 100q-414 0 -587 -326q-102 -195 -102 -489zM687 225l-5 809q6 51 31.5 73.5t76.5 28.5l83 3q106 6 184 6t160 -21.5t149 -63.5q143 -92 143 -285q0 -135 -99 -235.5t-228 -125.5
q43 -50 73 -68t76.5 -18t81.5 21t72 21t69.5 -27t32.5 -72.5t-47 -82.5q-85 -68 -202.5 -68t-219.5 71q-37 27 -100 91t-100 91v-146q0 -45 -37 -69t-78 -24t-76.5 25.5t-39.5 65.5zM917 614l135 -3q91 0 158.5 45.5t67.5 127.5t-53 118.5t-136 36.5q-22 0 -175 -4
q3 -168 3 -321z" />
    <glyph glyph-name="acute" unicode="&#xb4;" horiz-adv-x="675" 
d="M49 1445q-32 32 -32 64.5t27.5 71.5t51 61t62.5 55l108 106v-1q52 54 79.5 66.5t67 12.5t74.5 -32t35 -75.5t-27.5 -74t-49.5 -38.5q-101 -87 -212 -195q-58 -53 -105 -53t-79 32z" />
    <glyph glyph-name="uni0401" unicode="&#x401;" horiz-adv-x="1321" 
d="M734 1644q-30 35 -30 74t2.5 65t11.5 59q18 70 55 96t111 26q69 0 69 -160v-6q0 -95 -28 -142t-94.5 -47t-96.5 35zM246 1644q-30 35 -30 74t2.5 65t11.5 59q18 70 55 96t111 26q69 0 69 -160v-6q0 -95 -28 -142t-94.5 -47t-96.5 35zM317 0q-119 0 -119 113q0 22 14 71
l9 32l-23 1196q0 125 92 132q13 1 38 1h527l72 9q72 0 96.5 -25t24.5 -89t-31.5 -87.5t-81 -23.5t-75.5 3h-189l-149 -1h-93v-317q26 -1 495 -1l147 10q50 0 81.5 -36t31.5 -80.5t-34.5 -71t-92.5 -26.5l-628 -1v-599l408 -6l193 18q141 0 141 -101q0 -113 -125 -119
q-21 -1 -56 -1h-673z" />
    <glyph glyph-name="uni0410" unicode="&#x410;" horiz-adv-x="1568" 
d="M666 495l-211 -6q-126 -304 -145.5 -367t-25.5 -77.5t-20 -34.5q-28 -39 -93.5 -39t-100.5 28t-35 89t42 119q52 86 291 622t283 624q8 50 38.5 85.5t70.5 35.5t61 -7.5t33.5 -16.5t23.5 -29q14 -24 32.5 -79t75 -166.5t241 -524t226.5 -503.5l19 -28q62 -85 62 -138
q0 -111 -117 -111q-53 0 -88.5 30.5t-40.5 76.5q-39 85 -184 411q-38 0 -110 3zM546 707q20 0 462 -3q-85 186 -241 518q-97 -222 -221 -515z" />
    <glyph glyph-name="uni0411" unicode="&#x411;" horiz-adv-x="1476" 
d="M435 209l-1 479l413 9q121 0 205 -81q64 -62 64 -170q0 -229 -285 -254q-50 -5 -159 -5t-237 22zM890 1331q135 0 135 118.5t-171 118.5h-531q-77 0 -100 -42q-24 -27 -24 -118l12 -135l4 -798v-13l-4 -277q-12 -59 -12 -92q0 -97 126 -97q43 0 69 11q185 -37 389 -25
t281 44q152 64 212.5 169t60.5 286q0 66 -17.5 107.5t-60 112.5t-101.5 113q-41 65 -154 65l-123 18q-2 0 -84.5 -8.5t-172 -8.5t-181.5 11q0 268 1 454q305 0 363 -7t83 -7z" />
    <glyph glyph-name="uni0412" unicode="&#x412;" horiz-adv-x="1476" 
d="M215 475l-4 798l-12 135q0 86 21 112.5t101 27t235.5 7.5t173 7t40 -0.5t66.5 -4.5t76 -11.5t76 -22.5t75.5 -36t65 -54t55.5 -75q48 -93 48 -227q0 -173 -135 -303q45 -18 85.5 -47t70.5 -66t57 -104t27 -145.5t-18 -153t-48 -126.5t-79.5 -89.5t-103 -60t-127.5 -35.5
q-120 -21 -276.5 -21t-291.5 27q-25 -11 -68 -11q-126 0 -126 97q0 34 13 94q3 213 3 288zM847 697l-413 -9l1 -479q128 -22 237 -22t159 4.5t105.5 20.5t93.5 43q86 62 86 191q0 150 -130 217q-65 34 -139 34zM435 1344q2 -14 2 -147t-2 -292v-13q98 -12 171 -12t139.5 6
t120 20.5t82.5 42.5q60 56 60 176.5t-69.5 173.5t-210 53t-293.5 -6v-2z" />
    <glyph glyph-name="uni0413" unicode="&#x413;" horiz-adv-x="1099" 
d="M869 1335q135 0 135 118q0 119 -171 119h-531q-56 0 -85 -23.5t-29 -87.5l17 -118l-15 -1194q1 -77 27.5 -113t91 -36t89.5 27t25 99v150q-3 520 0 1073q305 0 363 -7t83 -7z" />
    <glyph glyph-name="uni0414" unicode="&#x414;" horiz-adv-x="1631" 
d="M229 117l8 193q0 675 -11 1073q-28 52 -28 93.5t25 69.5t79 28l117 -15l280 15q489 0 683 -316q110 -179 110 -426q0 -257 -128 -478q-153 -264 -466 -344q-115 -29 -207 -29t-193.5 11.5t-158.5 11.5q-110 0 -110 113zM446 1342l6 -1122q67 -18 188.5 -18t208.5 23.5
t147.5 61t108.5 89t76.5 104.5t47.5 110q33 99 33 225.5t-38.5 239t-118 177t-186 92t-221.5 27.5t-252 -9z" />
    <glyph glyph-name="uni0415" unicode="&#x415;" horiz-adv-x="1321" 
d="M317 0q-119 0 -119 113q0 22 14 71l9 32l-23 1196q0 125 92 132q13 1 38 1h527l72 9q72 0 96.5 -25t24.5 -89t-31.5 -87.5t-81 -23.5t-75.5 3h-189l-149 -1h-93v-317q26 -1 495 -1l147 10q50 0 81.5 -36t31.5 -80.5t-34.5 -71t-92.5 -26.5l-628 -1v-599l408 -6l193 18
q141 0 141 -101q0 -113 -125 -119q-21 -1 -56 -1h-673z" />
    <glyph glyph-name="uni0416" unicode="&#x416;" horiz-adv-x="2195" 
d="M1094 -29q126 0 126 101q-2 54 -6 91q-2 216 -2 399v112q191 -50 395 -362q138 -208 214 -271q85 -70 167 -70q104 0 142 29q40 30 40 90q0 94 -112 98q-14 1 -38 1t-50.5 17.5t-57.5 53.5q-40 49 -120.5 173t-198.5 238t-239 147q51 43 184 154q283 238 401 343
q35 20 55 35q56 44 56 107t-32.5 90t-76.5 27t-106.5 -46.5t-88.5 -84.5l-533 -504q2 350 2 532q0 46 -34 74.5t-82 28.5h-5h-5q-48 0 -82 -28.5t-34 -74.5q0 -182 2 -532l-533 504q-26 38 -88.5 84.5t-106.5 46.5t-76.5 -27t-32.5 -73.5t18 -77t38 -46t55 -35.5
q118 -105 326 -279.5t259 -217.5q-121 -33 -239 -147t-207 -252q-116 -177 -170 -213q-26 -17 -50 -17t-37.5 -0.5t-38 -6t-38.5 -14.5q-36 -25 -36 -67.5t11.5 -65t28 -35t42.5 -19.5q38 -10 91 -10t97.5 21t78.5 49t77 80q53 64 137 191q204 312 395 362v-112
q0 -183 -2 -399q-4 -37 -6 -91q0 -101 126 -101z" />
    <glyph glyph-name="uni0417" unicode="&#x417;" horiz-adv-x="1687" 
d="M460 617l-21 -161q0 -116 122 -200.5t293 -84.5q218 0 327 140q56 72 56 152t-17 129t-46.5 81.5t-69.5 54.5q-75 41 -180 41q-27 0 -81 -12.5t-95 -12.5t-66.5 32.5t-25.5 65.5t16 66t32 49q95 94 349 462h-618q-58 0 -91 31t-33 73.5t29.5 76t82.5 33.5h849
q51 0 81.5 -24.5t30.5 -71t-19.5 -70.5t-101.5 -137q-208 -284 -306 -379q144 11 262.5 -42t188.5 -162t70 -262.5t-87.5 -274.5t-228 -181t-312 -60t-317.5 59t-237.5 175.5t-91.5 268.5q0 256 136 256q48 0 84 -25.5t36 -85.5z" />
    <glyph glyph-name="uni0418" unicode="&#x418;" horiz-adv-x="1724" 
d="M1284 215l-6 -113q0 -61 25 -96t86 -35t95.5 25.5t34 79.5t-12.5 86q-5 362 -5 663t14 509q8 50 8 81q0 97 -89 117q-37 30 -85.5 30t-80 -40.5t-43.5 -79.5q-82 -124 -399.5 -524.5t-405.5 -530.5q0 668 10 851t10 207q0 76 -29.5 102.5t-77 26.5t-69 -11t-32.5 -26.5
t-18 -40.5q-9 -37 -9 -93v-1147l-8 -150q0 -76 25 -105.5t82 -29.5q111 0 142 96q135 184 400 523.5t387 502.5l60 94z" />
    <glyph glyph-name="uni0419" unicode="&#x419;" horiz-adv-x="1724" 
d="M1002 1766q-16 -5 -39.5 -12t-52 -17t-60.5 -10t-66.5 9t-52.5 12t-26 5t-26 8q-107 38 -139 -33q-30 -69 14 -114q30 -29 68 -38.5t84 -21.5q103 -26 130 -27q47 -1 79 16q90 21 135 35t65 33q50 49 21 119t-134 36zM1284 215l-6 -113q0 -61 25 -96t86 -35t95.5 25.5
t34 79.5t-12.5 86q-5 362 -5 663t14 509q8 50 8 81q0 97 -89 117q-37 30 -85.5 30t-80 -40.5t-43.5 -79.5q-82 -124 -399.5 -524.5t-405.5 -530.5q0 668 10 851t10 207q0 76 -29.5 102.5t-77 26.5t-69 -11t-32.5 -26.5t-18 -40.5q-9 -37 -9 -93v-1147l-8 -150
q0 -76 25 -105.5t82 -29.5q111 0 142 96q135 184 400 523.5t387 502.5l60 94z" />
    <glyph glyph-name="uni041A" unicode="&#x41a;" horiz-adv-x="1415" 
d="M198 1446q0 67 29.5 97.5t84.5 30.5t89 -28.5t34 -74.5q0 -182 -2 -532l533 504q26 38 88.5 84.5t106.5 46.5t76.5 -27t32.5 -73.5t-18 -77t-38 -46t-55 -35.5q-118 -105 -326 -279.5t-259 -217.5q121 -33 239 -147t207 -252q116 -177 170 -213q26 -17 50 -17t37.5 -0.5
t38 -6t38.5 -14.5q36 -25 36 -67.5t-11.5 -65t-28 -35t-42.5 -19.5q-147 -39 -267 60q-67 55 -119 130.5t-95 140.5q-204 312 -395 362v-112q0 -183 2 -399q4 -37 6 -91q0 -101 -126 -101q-56 0 -83.5 37.5t-27.5 84.5q0 600 -5 1353z" />
    <glyph glyph-name="uni041B" unicode="&#x41b;" horiz-adv-x="1344" 
d="M574 1505.5q-6 -13.5 -65.5 -182t-257.5 -665.5t-207.5 -537t-9.5 -64t29 -56t92.5 -32t91.5 64q182 446 432 1124q293 -769 386 -1041q4 -52 39.5 -101t88 -49t89.5 34t37 88.5t-55 141.5l-1 2q-133 306 -249 622t-221 583q4 22 4 34q0 99 -126 99q-56 0 -79 -34
q-12 -17 -18 -30.5z" />
    <glyph glyph-name="uni041C" unicode="&#x41c;" horiz-adv-x="2027" 
d="M1125 226q0 -94 -123 -94q-70 0 -96 40q-21 32 -28.5 78t-12.5 63q-161 580 -269 869q-53 -147 -163.5 -577t-149.5 -549q-19 -31 -31 -46q-28 -39 -79.5 -39t-86 31.5t-34.5 63.5t15.5 74.5t366.5 1222.5q35 145 58 167q43 44 102 44q77 0 110 -72q20 -44 43 -120
l251 -797l14 -42q83 257 156.5 531t82.5 302t17 53.5t12.5 37t13.5 32.5t18.5 31t23.5 22q24 22 67.5 22t68 -12t38.5 -46q0 -1 13.5 -34t18.5 -47t24.5 -68.5t37.5 -108t52 -156t72 -222.5q116 -363 216 -684q30 -81 30 -114q0 -111 -105 -111q-115 0 -148 161
q-186 684 -315 1047q-47 -133 -129 -426t-137 -443q-15 -41 -15 -84z" />
    <glyph glyph-name="uni041D" unicode="&#x41d;" horiz-adv-x="1576" 
d="M213 1348l-15 117q0 55 32.5 82t118.5 27q43 0 67 -32.5t24 -74.5l-6 -197v-221q310 -9 381.5 -9t171 6t142.5 7q1 52 1 295l-12 117q0 55 33 82t119 27q44 0 66 -34.5t22 -72.5l-11 -314l1 -598q0 -278 15 -365t15 -126t-26.5 -66t-97.5 -27t-101 25t-30 79l15 208
l-10 553q-34 1 -154.5 1t-537.5 -10q5 -463 17.5 -578.5t12.5 -170t-25.5 -81t-97 -26.5t-98 24t-26.5 79l7 208q0 51 -13 1066z" />
    <glyph glyph-name="uni041E" unicode="&#x41e;" horiz-adv-x="1684" 
d="M229 366q-85 182 -85 412t87.5 412t248 283t375 101t371.5 -102q314 -204 314 -699q0 -225 -84.5 -406.5t-245 -288.5t-368.5 -107t-368 106.5t-245 288.5zM495 362q59 -85 150 -136t202.5 -51t202.5 51t147 136q114 173 114 411q0 312 -164 477q-116 118 -302 118
q-223 0 -348 -161.5t-125 -415t123 -429.5z" />
    <glyph glyph-name="uni041F" unicode="&#x41f;" horiz-adv-x="1282" 
d="M1004 286l-9 1043q0 7 -1 18q-82 6 -86 5q-132 -22 -618 -8q-5 0 -11 -1q-13 -835 15 -1205q5 -33 5 -71t-26 -67t-96.5 -29t-101 27t-30.5 82l15 206l-9 1043l-12 118q0 26 6 46q7 84 125 89q14 0 68 -10q819 -9 819 14q49 6 55 6q88 0 105 -68q16 -31 16 -60t-9 -83
q-15 -862 14 -1243q5 -33 5 -71t-26 -67t-96.5 -29t-101 27t-30.5 82z" />
    <glyph glyph-name="uni0420" unicode="&#x420;" horiz-adv-x="1412" 
d="M207 83l10 132l-4 1150q-15 36 -15 83t28.5 80t78.5 33l180 -9l158 9q190 0 339.5 -68t237.5 -203t88 -319q0 -638 -812 -638q-31 -1 -58 0l1 -132l13 -132q0 -48 -38.5 -73t-85.5 -25t-84 30.5t-37 81.5zM623 1351l-192 -4q6 -545 8 -797q108 -6 170 -6t136.5 13.5
t126 36t89.5 56.5t59.5 70t34.5 82q21 76 21 161t-18 141.5t-46 94.5t-68.5 66.5t-80.5 44.5t-87 26q-75 15 -153 15z" />
    <glyph glyph-name="uni0421" unicode="&#x421;" horiz-adv-x="1495" 
d="M161.5 458q-52.5 141 -52.5 303t45 300.5t120 231.5t176 158q190 123 432 123q160 0 329 -59q5 -2 19.5 -7t20 -7t18.5 -7t18.5 -8.5t15.5 -9.5t15 -11.5t11.5 -13.5t9.5 -17q8 -22 8 -42q0 -65 -37 -94t-88 -29t-122 51q-83 34 -136 36t-117.5 2t-138.5 -20.5t-142 -66
t-120 -110.5q-113 -143 -113 -374q0 -301 171 -465q141 -135 367 -135q84 0 165.5 18.5t114.5 41.5q34 29 56 41t50 12q112 0 112 -105q0 -84 -120 -141v1q-49 -29 -159.5 -56.5t-209.5 -27.5q-178 0 -326 64t-244 173t-148.5 250z" />
    <glyph glyph-name="uni0422" unicode="&#x422;" horiz-adv-x="1138" 
d="M445 1320l-309 -2q-46 0 -71 37.5t-25 90.5t32 76t108 23h798q49 0 85 -26t36 -80t-29.5 -89t-71.5 -36l-63 6h-258l-3 -1128l7 -97q0 -125 -121 -125q-72 0 -96 40q-21 36 -21 84v40z" />
    <glyph glyph-name="uni0423" unicode="&#x423;" horiz-adv-x="1226" 
d="M493 687q-11 -18 -45 -71t-78 -122t-93 -149t-89 -142q-56 -52 -56 -115q0 -116 123 -116q45 0 70 32t51 97h-1q127 213 255 427l73 108q92 155 126.5 208t78.5 122q49 78 242 376q56 52 56 115q0 116 -123 116q-45 0 -70 -32t-51 -97h1q-65 -126 -315 -512l-31 -53
l-32 53q-26 43 -99 149q-152 223 -215 349q-59 143 -126 143q-57 0 -91 -30t-34 -75.5t60 -131.5q181 -261 413 -649z" />
    <glyph glyph-name="uni0424" unicode="&#x424;" horiz-adv-x="1684" 
d="M737 1259q-229 -27 -361 -157q-117 -116 -117 -302q0 -223 161 -348q129 -99 326 -120q-1 166 -4.5 459t-4.5 468zM732 105q-162 17 -295 81q-182 88 -283 248.5t-101 375t102 371.5q176 271 575 308q23 85 148 85q45 0 66 -27.5t27 -57.5q157 -17 289 -79
q182 -84 289 -244.5t107 -368.5t-106.5 -368t-288.5 -245q-128 -60 -277 -78q1 -13 1 -24q0 -53 -26 -82t-96.5 -29t-101 27t-30.5 82q0 11 1 25zM970 336q168 25 296 114q84 59 135 150t51 202.5t-51 202.5q-94 168 -327 232q-53 15 -110 22q-2 -157 -2 -422t8 -501z" />
    <glyph glyph-name="uni0425" unicode="&#x425;" horiz-adv-x="1241" 
d="M49 108q0 33 51 97q250 370 398 617q-115 180 -252 377.5t-148.5 224.5t-11.5 39q0 46 33 77.5t80 31.5t82 -43q44 -59 160 -247.5t179 -289.5q158 258 279 470q25 56 48.5 80t72 24t83.5 -31.5t35 -83t-68 -128.5q-218 -331 -335 -512q336 -546 405 -619
q52 -55 52 -104.5t-31 -83.5t-110 -34q-20 0 -51.5 30t-52.5 80v1q-9 29 -333 554q-43 -72 -163 -280.5t-151 -261.5t-42 -71q-33 -52 -62 -52q-56 0 -101.5 36t-45.5 102z" />
    <glyph glyph-name="uni0426" unicode="&#x426;" horiz-adv-x="1606" 
d="M1556 -45l5 150q0 47 -35 74t-72 27t-75 -3q-112 -9 -128 -7t-28 3q-15 859 14 1215q5 61 5 85t-26 53t-96.5 29t-103 -28.5t-28.5 -80.5l15 -206l-9 -1043q0 -14 -1 -17q-82 -7 -86 -6q-288 48 -618 9q-5 -1 -11 0q-13 861 15 1205q5 61 5 85t-26 53t-96.5 29
t-103 -28.5t-28.5 -80.5l15 -206l-9 -1043l-12 -118q-2 -19 6 -46q7 -84 125 -88q14 -1 68 9q820 9 820 0q44 -5 51 -5l11 -1q106 -4 124.5 3t43 7t54.5 -1q1 -14 1 -23l-15 -266q0 -56 34 -82.5t91 -26.5t88 29.5t31 75.5z" />
    <glyph glyph-name="uni0427" unicode="&#x427;" horiz-adv-x="1555" 
d="M1075 581q-178 -154 -369 -154q-256 0 -392 151t-138 462q0 197 92 385q-62 -21 -98 -21t-61 22q-39 33 -39 77q0 81 72 107t173 52t151 26t79 -30.5t29 -81t-51 -120t-86 -185.5t-36 -231q-1 -193 75 -295t243 -102q95 0 191 61.5t168 150.5q-2 157 3 373t1 221.5
t-27 -3.5q-25 -11 -60 -11t-62 25.5t-29 69t21 74.5t48 37t52 11.5t93 20.5t105 15t62.5 -27t21 -75.5t-8 -106.5t-5.5 -96q10 -597 20 -1193q10 -1 33.5 2t52 3t60 -27t31.5 -80t-27 -81.5t-68 -28.5l-63 8l-163 -8q-42 0 -68.5 28t-26.5 75q0 225 -1 449z" />
    <glyph glyph-name="uni0428" unicode="&#x428;" horiz-adv-x="2218" 
d="M1951 1250l-9 -1044q0 -7 -1 -17q-82 -6 -86 -6q-132 22 -618 9h-8q-15 840 14 1216q5 32 5 70t-26 67t-96.5 29t-97.5 -23q-36 -32 -36 -95l15 -206l-9 -1044l-1 -7q-80 -6 -84 -6q-132 22 -618 9h-11q-13 835 15 1206q5 32 5 70t-26 67t-96.5 29t-101 -27t-30.5 -81
l15 -206l-9 -1044l-12 -118q0 -25 6 -46q7 -83 125 -88q14 0 68 9q819 9 819 -14q49 -5 52.5 -5h15.5t26.5 3.5t28.5 5.5q819 9 819 -14q49 -5 55 -5q88 -1 105 68q16 30 16 59t-9 83q-15 862 14 1244q5 32 5 70t-26 67t-96.5 29t-101 -27t-30.5 -81z" />
    <glyph glyph-name="uni0429" unicode="&#x429;" horiz-adv-x="2542" 
d="M2500 -45l5 150q0 47 -35 74t-72 27t-75 -3q-112 -9 -128 -7t-28 3q-15 859 14 1215q5 61 5 85t-26 53t-96.5 29t-103 -28.5t-28.5 -80.5l15 -206l-9 -1043q0 -14 -1 -17q-82 -7 -86 -6q-288 48 -618 9q-2 -1 -5 -1q-13 828 15 1200q5 32 5 70t-29 70.5t-99.5 32.5
t-103 -28.5t-28.5 -80.5l15 -206l-9 -1043l-3 -25q-75 -5 -78 -5q-132 22 -618 9h-11q-13 835 15 1206q5 32 5 70t-26 67t-96.5 29t-101 -27t-30.5 -81l15 -206l-9 -1044l-12 -118q0 -25 6 -46q7 -83 125 -88q14 0 68 9q819 9 819 -14q49 -5 55 -5q55 -1 82 26q802 9 802 0
q44 -5 51 -5l11 -1q106 -4 124.5 3t43 7t54.5 -1q1 -14 1 -23l-15 -266q0 -56 34 -82.5t91 -26.5t88 29.5t31 75.5z" />
    <glyph glyph-name="uni042A" unicode="&#x42a;" horiz-adv-x="1544" 
d="M755 183l-192 4q6 545 8 797q108 6 170 6t136.5 -13.5t126 -36t89.5 -56.5t59.5 -70t34.5 -82q21 -76 21 -161t-18 -141.5t-46 -94.5t-68.5 -66.5t-80.5 -44.5t-87 -26q-75 -15 -153 -15zM44 1326l265 15q16 0 39 -1q1 -12 1 -21l-4 -1150q-15 -36 -15 -83t28.5 -80
t78.5 -33l180 9l158 -9q190 0 339.5 68t237.5 203t88 319q0 638 -812 638q-31 1 -58 0l1 132l13 132q0 48 -38.5 73t-81.5 25l-150 -8l-266 15q-56 0 -82.5 -34t-26.5 -91t29.5 -88t75.5 -31z" />
    <glyph glyph-name="uni042B" unicode="&#x42b;" horiz-adv-x="1888" 
d="M207 1451l10 -132l-4 -1150q-15 -36 -15 -83t28.5 -80t78.5 -33l180 9l158 -9q190 0 339.5 68t237.5 203t88 319q0 638 -812 638q-31 1 -58 0l1 132l13 132q0 48 -38.5 73t-85.5 25t-84 -30.5t-37 -81.5zM623 183l-192 4q6 545 8 797q108 6 170 6t136.5 -13.5t126 -36
t89.5 -56.5t59.5 -70t34.5 -82q21 -76 21 -161t-18 -141.5t-46 -94.5t-68.5 -66.5t-80.5 -44.5t-87 -26q-75 -15 -153 -15zM1501 1317l-12 118q0 127 153 127q45 0 71 -34t26 -69.5t-9 -89.5q6 -209 6 -601t11.5 -526t11.5 -172t-26 -67t-96.5 -29t-101 27t-30.5 82l15 206z
" />
    <glyph glyph-name="uni042C" unicode="&#x42c;" horiz-adv-x="1412" 
d="M207 1451l10 -132l-4 -1150q-15 -36 -15 -83t28.5 -80t78.5 -33l180 9l158 -9q190 0 339.5 68t237.5 203t88 319q0 638 -812 638q-31 1 -58 0l1 132l13 132q0 48 -38.5 73t-85.5 25t-84 -30.5t-37 -81.5zM623 183l-192 4q6 545 8 797q108 6 170 6t136.5 -13.5t126 -36
t89.5 -56.5t59.5 -70t34.5 -82q21 -76 21 -161t-18 -141.5t-46 -94.5t-68.5 -66.5t-80.5 -44.5t-87 -26q-75 -15 -153 -15z" />
    <glyph glyph-name="uni042D" unicode="&#x42d;" horiz-adv-x="1495" 
d="M1334.5 455q52.5 141 52.5 303t-45 300.5t-120 231.5t-176 158q-190 123 -432 123q-160 0 -329 -59q-5 -2 -19.5 -7t-20 -7t-18.5 -7t-18.5 -8.5t-15.5 -9.5t-15 -11.5t-11.5 -13.5t-9.5 -16q-8 -23 -8 -43q0 -65 37 -94t88 -29t122 51q83 34 136 36t117.5 2t138.5 -20.5
t142 -66.5q154 -103 208 -290l-885 -17q-101 -2 -134.5 -22t-33.5 -77q0 -93 168 -90l910 18v-58.5t-21.5 -145.5t-60.5 -154.5t-89.5 -113t-111.5 -77.5q-120 -57 -229.5 -57t-191 18.5t-114.5 41.5q-34 29 -56 41t-50 12q-112 0 -112 -105q0 -84 120 -141v1
q49 -29 159.5 -56.5t209.5 -27.5q178 0 326 64t244 173t148.5 250z" />
    <glyph glyph-name="uni042E" unicode="&#x42e;" horiz-adv-x="1964" 
d="M837 362q59 -85 150 -136t202.5 -51t202.5 51t147 136q114 173 114 411q0 312 -164 477q-116 118 -302 118q-223 0 -348 -161.5t-125 -415t123 -429.5zM95 1329l-12 118q0 127 153 127q45 0 71 -34t26 -69.5t-9 -89.5q-4 -228 -4 -412l150 2q16 6 35 9q64 334 317 493
q160 101 374.5 101t371.5 -102q314 -204 314 -699q0 -225 -84.5 -406.5t-245 -288.5t-368.5 -107t-368 106.5t-243 284t-87 388.5l-165 4q2 -426 12 -537.5t10 -149.5t-26 -67t-96.5 -29t-101 27t-30.5 82l15 206z" />
    <glyph glyph-name="uni042F" unicode="&#x42f;" horiz-adv-x="1572" 
d="M941 405l297 3v-146q-1 -29 -11.5 -90t-10.5 -103t37.5 -70t89.5 -28t91 39.5t39 87t-6 95.5q0 829 -1 1166q14 38 14 85t-28 82t-78 35l-182 -10l-186 10q-313 0 -488 -127t-175 -389q0 -274 174 -457q92 -96 210 -143q-18 -114 -81 -188.5t-155 -74.5t-130 59
q-36 51 -87 51t-81.5 -29.5t-30.5 -76.5q0 -88 95.5 -151.5t245.5 -63.5q224 0 349 210q63 104 89 224zM1027 1354l217 -4q4 -102 4 -309t-9 -418q-140 -6 -222.5 -6t-152.5 16.5t-117.5 47.5t-81 70.5t-51.5 90.5q-35 95 -35 183.5t18 136.5t45 79t68.5 53t78.5 33.5
t87 18.5q64 8 151 8zM772 430h-1h1zM771 430l-1 1z" />
    <glyph glyph-name="uni0430" unicode="&#x430;" horiz-adv-x="1594" 
d="M1338 1004l-9 -544q0 -209 5 -237q22 5 59 24q39 15 73.5 15t60.5 -35.5t26 -78.5q0 -73 -61 -94q-18 -6 -59.5 -22t-65.5 -24q-69 -23 -126 -23q-121 0 -130 175q-66 -82 -176 -135.5t-257 -53.5t-281.5 82t-208.5 225.5t-74 299.5t46.5 275t125.5 203.5t189.5 134
t232.5 49.5t226 -50.5t168 -123.5q-1 18 -1 64.5t30.5 79.5t87 33t92.5 -34t36 -67zM391 817q-47 -98 -47 -212.5t42 -208t126.5 -152t180.5 -58.5t168 32.5t122 86.5q102 111 129 250v88q-25 136 -121 254q-48 59 -120 96t-167 37t-180.5 -57.5t-132.5 -155.5z" />
    <glyph glyph-name="uni0431" unicode="&#x431;" horiz-adv-x="1518" 
d="M1325 783q46 -111 46 -234.5t-37.5 -222.5t-109 -179.5t-188.5 -128.5t-258.5 -48t-251 38.5t-182.5 104t-122 157.5q-91 172 -91 408q0 296 96 531q51 125 126.5 218t191 149.5t256.5 56.5q110 0 203 -25q178 -46 178 -146q0 -51 -32 -76.5t-83.5 -25.5t-94 26.5
t-69.5 31.5t-109 5q-166 0 -279.5 -134t-142.5 -343q77 87 193 125.5t230.5 38.5t219 -37.5t184.5 -108t126 -181.5zM1150 523q0 81 -21.5 152t-56 114t-83.5 70q-85 47 -181.5 47t-178.5 -29.5t-155.5 -93t-106.5 -147.5v-72q0 -165 109 -281t292 -116q188 0 300 119
q82 88 82 237z" />
    <glyph glyph-name="uni0432" unicode="&#x432;" horiz-adv-x="1249" 
d="M352 597q77 -38 152 -57.5t99 -25.5q158 -40 193 -59q65 -36 82 -57q34 -39 35 -87q-3 -31 -18 -58q-23 -27 -55 -45q-78 -34 -179 -37q-101 3 -197 31q-55 28 -100 69q-8 208 -12 326zM363 24q29 -15 176 -46q231 -31 422 60q60 31 101 78q67 89 70 210q-6 174 -145 266
q-24 14 -49 27q78 50 106 92q58 87 58 183t-42 161.5t-112 102.5q-138 74 -312 74q-83 0 -142.5 -15t-135.5 -46q0 1 -1 13q-4 69 -56 100q-40 14 -101 2q-29 -8 -54 -25q-19 -19 -30 -43q-8 -26 -8 -52l12 -118q-1 -127 -1 -254q14 -252 17 -505l-15 -206q2 -52 31 -82
q36 -25 111 -25t100 48zM876 873q-36 -95 -233 -134q-41 -8 -68 1l-36 12q-130 47 -159 107q-7 18 -12 33.5t-9 27.5q8 12 14 26q57 43 123 70q72 19 147 23q156 -3 220 -81q23 -43 13 -85z" />
    <glyph glyph-name="uni0433" unicode="&#x433;" horiz-adv-x="1249" 
d="M155 951q0 -88 103 -88q39 0 70.5 24.5t44.5 58.5q111 93 270 93q104 0 170.5 -37.5t66.5 -98.5q0 -84 -127 -135q-65 -26 -161.5 -52.5t-144 -41t-120.5 -48t-111 -70t-68 -96t-30 -140t33 -146t83 -103t119 -61.5q116 -39 237.5 -39t219 28.5t166 71t110.5 93.5
t42 94.5t-36.5 73.5t-71.5 30t-56 -10t-30.5 -21t-26.5 -35q-83 -125 -318 -125q-107 0 -179.5 37.5t-72.5 102.5q0 61 47 99q52 41 103 58q84 27 149 43.5t101.5 26.5t89.5 29t87 38t73 49t62 64q53 80 53 176t-42 161.5t-112 102.5q-138 74 -312 74q-83 0 -142.5 -15
t-135.5 -46q-9 35 -34.5 61t-62.5 26q-103 0 -103 -86l6 -169q-9 -21 -9 -52z" />
    <glyph glyph-name="uni0434" unicode="&#x434;" horiz-adv-x="1507" 
d="M1326 959l-7 -856q0 -305 -165 -454q-159 -143 -426 -143q-101 0 -213 32t-192.5 89t-80.5 112t29.5 94.5t76.5 39.5t80.5 -28.5t55 -45.5t60.5 -39q73 -42 190 -42q166 0 282 124q83 88 83 218q0 9 -1 30.5t-1 32.5q-124 -152 -392 -152q-169 0 -303.5 82t-209.5 225.5
t-77 321.5v6q0 138 44.5 255.5t124.5 198.5q171 172 433 172t405 -157q26 86 95.5 86t93 -29.5t23.5 -82.5zM445.5 907q-107.5 -123 -107.5 -305.5t102.5 -299t281 -116.5t283 115t104.5 299q0 182 -90 302q-96 128 -281 128t-292.5 -123z" />
    <glyph glyph-name="uni0435" unicode="&#x435;" horiz-adv-x="1402" 
d="M136.5 415q-22.5 85 -22.5 199t48 236t132 206q178 176 448 176q191 0 328.5 -108t173.5 -281q39 -33 39 -87q0 -98 -107 -125q-150 -38 -429.5 -96.5t-389.5 -83.5q52 -198 240 -251q50 -14 103 -14q139 0 230.5 40.5t121.5 83.5q20 31 50.5 53t67.5 22t65 -29.5
t28 -80.5t-66 -111q-208 -193 -498 -193q-114 0 -212 37.5t-165.5 99.5t-115 142t-70 165zM340 636q107 25 340.5 74t357.5 79q-36 98 -117 162.5t-186 64.5q-168 0 -274 -103.5t-121 -276.5z" />
    <glyph glyph-name="uni0436" unicode="&#x436;" horiz-adv-x="2091" 
d="M936 746q-3 241 -5 262q-67 -5 -127 -5q-124 0 -124 108q0 51 27.5 79.5t68.5 28.5l149 -7l144 7q27 0 47 -8q27 -2 44 -2l149 7q41 0 68.5 -28.5t27.5 -81.5t-32 -79.5t-92.5 -26.5t-127.5 5q-1 -15 -4 -256l415 358q17 27 49 52q9 35 34 61q26 26 70 26t72 -21.5
t25 -58.5q-6 -58 -2 -249q9 -21 9 -52q0 -88 -103 -88q-39 0 -69 23.5t-44 53.5q-134 -117 -241 -208q51 -9 101 -23l39 -7q109 -37 176.5 -114t98.5 -191.5t74 -114.5l108 19q45 0 74 -30.5t29 -82.5q0 -133 -234 -133q-94 0 -144 44q-55 47 -75 95q-28 67 -43 120t-20 70
q-20 61 -40 83q-9 5 -125.5 35.5t-235.5 29.5v-149.5t3 -104.5q20 2 52 13.5t68 11.5t54 -20q28 -31 28 -77q0 -71 -106 -104q-76 -21 -126 -32q-28 -16 -71.5 -16t-209.5 45q-106 33 -106 104q0 97 94 97q24 0 56 -11.5t51 -13.5q4 41 4 107.5v146.5q-119 1 -235.5 -29.5
t-126.5 -35.5q-24 -28 -45 -103t-29 -98.5t-24 -61.5t-34 -60t-44 -45q-51 -44 -145 -44q-234 0 -234 133q0 52 29 82.5t74 30.5l108 -19q43 0 74 115q63 233 275 305l39 7q50 14 101 23q-107 91 -241 208q-14 -30 -44 -53.5t-69 -23.5q-103 0 -103 88q0 31 9 52
q4 190 -1 238q-8 91 103 91q37 0 63 -26q25 -26 34 -61q32 -25 49 -52z" />
    <glyph glyph-name="uni0437" unicode="&#x437;" horiz-adv-x="1249" 
d="M158 1172q0 86 103 86q37 0 62.5 -26t34.5 -61q76 31 135.5 46t143.5 15t163 -18.5t148.5 -55.5t111.5 -102.5t42 -136.5t-15 -119q-29 -91 -100 -146q-26 -20 -50 -35q193 -95 193 -294q0 -262 -303 -334q-248 -59 -479 41q-119 51 -186 132q-85 102 -6 168
q60 51 128 20q24 -10 38.5 -30.5t17.5 -25.5q97 -125 320 -125q104 0 159.5 28.5t72.5 53.5q35 51 8 113q-33 71 -220 128q-21 6 -46.5 12t-43.5 13t-34 25q-63 74 -7 142l31 27q38 15 83 26t90 29t69 35q58 42 58 101.5t-66.5 97t-170.5 37.5q-159 0 -270 -93
q-13 -34 -44.5 -58.5t-70.5 -24.5q-103 0 -103 88q0 31 9 52z" />
    <glyph glyph-name="uni0438" unicode="&#x438;" horiz-adv-x="1437" 
d="M1271 199l7 -114q0 -61 -23.5 -86t-110.5 -28q-54 0 -80.5 36t-26.5 76q0 1 5 34q-86 -74 -183 -110t-181 -36q-258 0 -389.5 146.5t-131.5 428.5q0 224 87 412q-19 -6 -37 -6q-102 0 -102 112q0 56 32.5 77t81 30.5t111.5 35t115.5 25.5t82 -31.5t29.5 -86.5t-55.5 -117
t-90 -191.5t-34.5 -259.5q0 -366 306 -366q94 0 192 50.5t176 132.5q4 149 4 307t-6 308q-65 -19 -105.5 -19t-71.5 29.5t-31 84.5q0 34 10 47.5t15 20.5t20 13.5t22.5 10t29 9t30.5 7t33 6t79 25t86 20.5t49.5 -9t28 -20.5t14.5 -36.5q6 -30 6 -112.5t1 -158.5z" />
    <glyph glyph-name="uni0439" unicode="&#x439;" horiz-adv-x="1437" 
d="M870 1517q-16 -5 -39.5 -12t-52 -17t-60.5 -10t-66.5 9t-52.5 12t-26 5t-26 8q-107 38 -139 -34q-30 -68 14 -112q30 -30 68 -39.5t84 -21.5q103 -26 130 -27q47 -1 79 16q90 21 135 35t65 33q50 49 21 119t-134 36zM1271 199l7 -114q0 -61 -23.5 -86t-110.5 -28
q-54 0 -80.5 36t-26.5 76q0 1 5 34q-86 -74 -183 -110t-181 -36q-258 0 -389.5 146.5t-131.5 428.5q0 224 87 412q-19 -6 -37 -6q-102 0 -102 112q0 56 32.5 77t81 30.5t111.5 35t115.5 25.5t82 -31.5t29.5 -86.5t-55.5 -117t-90 -191.5t-34.5 -259.5q0 -366 306 -366
q94 0 192 50.5t176 132.5q4 149 4 307t-6 308q-65 -19 -105.5 -19t-71.5 29.5t-31 84.5q0 34 10 47.5t15 20.5t20 13.5t22.5 10t29 9t30.5 7t33 6t79 25t86 20.5t49.5 -9t28 -20.5t14.5 -36.5q6 -30 6 -112.5t1 -158.5z" />
    <glyph glyph-name="uni043A" unicode="&#x43a;" horiz-adv-x="1479" 
d="M612 118zM1241 196l108 19q45 0 74 -30.5t29 -82.5q0 -133 -234 -133q-94 0 -144 44q-55 47 -75 95q-28 67 -43 120t-20 70q-20 61 -40 83q-9 5 -125.5 35.5t-235.5 29.5q-2 -194 1 -254q20 1 53 13t69 12t54 -20q28 -31 28 -77q0 -71 -106 -104q-166 -45 -208 -45
q-115 0 -115 104q0 26 7.5 79.5t7.5 295.5t-6 558q-67 -5 -128 -5q-124 0 -124 108q0 51 27.5 79.5t68.5 28.5l149 -7l144 7q95 0 95 -102l-14 -165q0 -37 -1 -203l415 358q17 27 49 52q9 35 34 61q26 26 70 26t72 -21.5t25 -58.5q-6 -58 -2 -249q9 -21 9 -52
q0 -88 -103 -88q-39 0 -69 23.5t-44 53.5q-134 -117 -241 -208q51 -9 101 -23l39 -7q109 -37 176.5 -114t98.5 -191.5t74 -114.5z" />
    <glyph glyph-name="uni043B" unicode="&#x43b;" horiz-adv-x="1307" 
d="M1005 -23l162 -3q40 0 76 26t36 71q0 100 -116 109q24 80 24 161t-19.5 143t-57.5 121q-59 91 -127.5 167.5t-89.5 102t-53 71.5q-60 85 -62 164q-2 57 -20.5 75.5t-35.5 24.5q-22 8 -59 8t-74 -27.5t-38 -65.5q-1 -70 -42.5 -135t-104 -132.5t-88 -98t-63 -83.5
t-57.5 -98q-51 -117 -51 -208t15 -177h-21q-43 0 -81.5 -29t-38.5 -83t30.5 -81.5t62.5 -27.5t51 1l35 1q37 2 77 2t88.5 -0.5t69 24.5t20.5 60t-33 76t-40 60q-18 66 -18 131.5t10 105t21 66t38 61.5q32 43 113.5 129.5t119.5 163.5q50 -100 141 -191q107 -110 125 -151
q38 -85 38 -149.5t-9 -103.5q-11 -48 -41 -92q-34 -43 -34 -93q0 -96 121 -96z" />
    <glyph glyph-name="uni043C" unicode="&#x43c;" horiz-adv-x="1785" 
d="M83 198q-43 -69 -43 -120.5t37 -81t68.5 -29.5t45.5 2.5t25 10.5t17.5 13t14.5 21q66 147 192.5 467.5t154.5 388.5l177 -487q-49 -118 -85 -183.5t-36 -118t32.5 -83.5t68 -31t55 8.5t33.5 26.5q20 27 30 55t16 42q47 -132 134 -132q43 0 76.5 29.5t33.5 70t-30 94.5
l-99 225l194 484l261 -701q24 -112 49 -142q49 -60 103 -60t88 33t34 67t-10 57.5t-29 52.5t-27 46.5t-122.5 315t-159 400t-58 149t-20 63.5t-21.5 39q-26 38 -91 38q-78 0 -150 -173q-23 -57 -73 -191t-80 -208q-17 44 -54 134q-74 179 -103.5 274.5t-56 129.5t-77.5 34
t-84 -37t-73 -130q-291 -745 -358 -864v1z" />
    <glyph glyph-name="uni043D" unicode="&#x43d;" horiz-adv-x="1490" 
d="M1254 246q81 179 81 408q0 249 -131 418q-103 133 -240 168q-30 8 -46 8t-38 -2t-47 -21q-53 -40 -32 -102q9 -28 30.5 -47t63.5 -46q75 -48 104 -85q38 -46 56 -83q-24 -9 -42 -21l-602 -151h-1q0 47 1 109l9 265q3 30 3 68.5t-26.5 66t-68.5 27.5l-164 -8l-63 8
q-42 0 -68.5 -28.5t-26.5 -81.5t31.5 -80t74.5 -27t71 5q9 -423 9 -433v-11q3 -147 3 -291l-14 -205q0 -52 22.5 -77.5t79.5 -25.5q16 0 61.5 13t77.5 16.5t48.5 6.5t41 11t38.5 20q34 31 34 84q0 104 -110 104q-13 0 -40 -8l-27 -8q-2 23 -2 92.5t1 165.5q8 1 280 66.5
t317 77t70 17.5t33 8v-24q0 -207 -55 -320q-12 -26 -40.5 -68t-38 -67.5t-9.5 -44.5q0 -102 56 -133q40 -22 125 7q30 11 44 14q25 7 41 14t27 9l108 25q76 15 81 114q4 78 -55 97q-36 13 -65 5t-45.5 -12.5t-25.5 -6.5z" />
    <glyph glyph-name="uni043E" unicode="&#x43e;" horiz-adv-x="1460" 
d="M158.5 344.5q-49.5 119.5 -49.5 274.5t83 299.5t226 229t319 84.5t319 -85t219 -227.5t76 -322t-85.5 -325.5t-226.5 -223.5t-288 -77.5t-260 46t-198 127t-134.5 200.5zM445 897.5q-105 -118.5 -105 -302t105 -296.5t278.5 -113t285.5 110.5t112 296t-106 304.5
t-285.5 119t-284.5 -118.5z" />
    <glyph glyph-name="uni043F" unicode="&#x43f;" horiz-adv-x="1622" 
d="M283 74l14 205q0 144 -3 291v11q-1 23 -2 50q-2 150 -7 383q-28 -5 -71 -5t-74.5 27t-31.5 80t26.5 81.5t68.5 28.5l63 -8l164 8q42 0 68.5 -27.5t26.5 -66t-3 -68.5q178 168 415.5 168t368 -159.5t130.5 -453.5q0 -181 -80 -373q69 20 98 20q93 0 93 -94.5t-81 -122.5
l-108 -25q-38 -12 -78 -26q-83 -27 -99 -27h-20q-45 0 -70.5 37.5t-25.5 98t41 109.5q102 127 102 403q0 199 -94 310q-74 87 -193 87t-225 -62.5t-183 -154.5q-2 -120 -4 -219.5t-2 -223t2 -146.5l27 8q28 8 40 8q110 0 110 -104q0 -80 -72 -104q-36 -12 -79 -16.5
t-88.5 -17.5t-82 -13t-59 25.5t-22.5 77.5z" />
    <glyph glyph-name="uni0440" unicode="&#x440;" horiz-adv-x="1504" 
d="M207 1027l-62 -7q-42 0 -73.5 24.5t-31.5 82.5t26.5 79.5t82.5 21.5l90 -6l92 6q96 0 96 -89q0 -15 -4 -43.5t-5 -40.5q64 81 167 129t224 48q262 0 421.5 -166.5t159.5 -452.5q0 -182 -68.5 -326t-205.5 -230t-323 -86q-109 0 -208 39.5t-166 110.5l4 -193
q4 -238 4 -352q0 -87 -113 -87q-48 0 -74.5 18.5t-26.5 67.5v975q0 424 -6 477zM417 525q23 -146 119 -242.5t221 -96.5q198 0 296.5 110.5t98.5 299.5t-97 304.5t-248 115.5t-260.5 -118.5t-129.5 -281.5v-91z" />
    <glyph glyph-name="uni0441" unicode="&#x441;" horiz-adv-x="1385" 
d="M1219 1083l20 -179q0 -51 -26 -83t-67.5 -32t-64.5 13t-32.5 27t-23.5 42t-23.5 43t-32 37t-50.5 35q-68 30 -173 30t-179 -35t-120 -95q-95 -124 -95 -296q0 -113 58 -216q67 -115 185 -162q66 -26 146 -26t166.5 38t137.5 104q47 59 94 56q111 -7 111 -99v-10
q-5 -69 -70 -142q-162 -162 -450 -162q-132 0 -248 50.5t-196 136.5t-126 202t-46 242.5t38.5 237t115 199.5t204.5 141t284 52t248 -59q17 97 119 97q47 0 74.5 -25.5t27.5 -68.5z" />
    <glyph glyph-name="uni0442" unicode="&#x442;" horiz-adv-x="2349" 
d="M282 73l15 204q0 161 -13 737q-28 -5 -70.5 -5t-74.5 27t-32 80t27 81.5t69 28.5l63 -8l163 8q76 0 76 -103v-20q156 129 331 129q250 0 387 -143q82 68 178.5 105.5t179.5 37.5q257 0 408 -150t151 -423q0 -90 -21.5 -216t-53.5 -214q20 6 44 6t47 -12.5t33 -32.5
q18 -35 18 -81.5t-43 -67.5t-198 -54q-67 -18 -86 -18q-61 0 -91 32.5t-30 87.5t51 114q45 73 73.5 205.5t28.5 250.5q0 167 -83.5 262.5t-252.5 95.5q-83 0 -138.5 -23t-111.5 -74q41 -112 41 -235t-24 -251t-65 -218q64 16 82.5 16t40.5 -12.5t31 -33.5q18 -37 18 -79
t-27.5 -65t-62.5 -27q-119 -14 -139 -24q-43 -22 -99 -22t-86.5 39.5t-30.5 90t37 117t66.5 197.5t29.5 246q0 171 -71 264.5t-240.5 93.5t-321.5 -153q-1 -135 -1 -399t3 -257q59 17 69 17q110 0 110 -104q0 -95 -116 -115q-17 -3 -39.5 -6t-72.5 -17t-90 -14
q-86 0 -86 104z" />
    <glyph glyph-name="uni0443" unicode="&#x443;" horiz-adv-x="1457" 
d="M1283 260l6 -188q0 -375 -234 -498q-139 -73 -358 -73q-126 0 -237.5 35t-181.5 99.5t-70 142.5q0 40 31 77.5t90 37.5q37 0 69 -36q9 -10 28 -32q54 -68 119.5 -89.5t154 -21.5t150.5 18t112 59q103 83 109 293q0 1 -0.5 3.5t-0.5 4.5q-130 -121 -344 -121
q-319 0 -478 201q-118 152 -118 412q0 76 25.5 176.5t73.5 183.5q-6 -1 -19 -1q-44 0 -75.5 31t-31.5 75t36.5 74.5t110 46.5t151 39t114.5 23t66.5 -28t29.5 -81t-45 -86q-82 -33 -148.5 -175.5t-66.5 -261t30 -200.5t83 -128q102 -90 258 -90q250 0 346 164v631
q-84 -28 -125.5 -28t-75.5 24t-34 76q0 99 106 116l155 44l-1 -1q45 24 76.5 24t44 -2.5t33.5 -11.5q45 -19 45 -102q0 -21 -2.5 -49t-6.5 -807z" />
    <glyph glyph-name="uni0444" unicode="&#x444;" horiz-adv-x="2172" 
d="M1185 541v91q20 163 129.5 281.5t260.5 118.5t248 -115.5t97 -304.5t-98.5 -299.5t-296.5 -110.5q-125 0 -221 96.5t-119 242.5zM1001 1666l-90 6q-56 0 -82.5 -21.5t-26.5 -79.5t31.5 -82.5t65 -24.5t48 4.5t22 2.5t8.5 -139t1 -171t-0.5 -56t0.5 -34q-64 81 -167 129
t-224 48q-262 0 -421.5 -166.5t-159.5 -452.5q0 -182 68.5 -326t205.5 -230t323 -86q109 0 208 39.5t166 110.5l-4 -193q-4 -193 -4 -352q0 -87 113 -87t113 87q0 159 -4 352l-4 193q67 -71 166 -110.5t208 -39.5q186 0 323 86t205.5 230t68.5 326q0 286 -159.5 452.5
t-421.5 166.5q-18 0 -219 -48l-96 -60l-82 -68l6 167q0 150 -0.5 227.5t4 117t-23.5 64t-73 24.5zM979 541q-23 -146 -119 -242.5t-221 -96.5q-198 0 -296.5 110.5t-98.5 299.5t97 304.5t248 115.5t260.5 -118.5t129.5 -281.5v-91z" />
    <glyph glyph-name="uni0445" unicode="&#x445;" horiz-adv-x="1297" 
d="M186 988q-65 69 -65 125t37 87.5t73 31.5q76 0 117 -90l289 -370l250 342v-1q37 65 65 92t71.5 27t81 -34.5t37.5 -87.5t-116 -188q-18 -24 -42 -55.5t-84 -110.5t-125 -164q72 -91 119.5 -146t66 -76.5t49 -54t40.5 -42.5q66 -70 85 -91.5t30.5 -59t11.5 -58.5
q0 -93 -119 -93q-13 0 -45.5 18.5t-44.5 29.5q-56 65 -133 170.5t-185 235.5q-42 -57 -127 -171t-127 -172q-15 -43 -45.5 -77t-81.5 -34q-34 0 -66 17q-62 34 -62 99q0 39 10 57t52 64q150 164 310 388q-55 62 -161.5 193t-165.5 199z" />
    <glyph glyph-name="uni0446" unicode="&#x446;" horiz-adv-x="1617" 
d="M1333 -83q-68 27 -189 54q-54 0 -80.5 36t-26.5 76q0 1 5 34q-86 -74 -183 -110t-181 -36q-258 0 -389.5 146.5t-131.5 428.5q0 224 87 412q-19 -6 -37 -6q-102 0 -102 112q0 56 32.5 77t81 30.5t111.5 35t115.5 25.5t82 -31.5t29.5 -86.5t-55.5 -117t-90 -191.5
t-34.5 -259.5q0 -366 306 -366q94 0 192 50.5t176 132.5q4 149 4 307t-6 308q-65 -19 -105.5 -19t-71.5 29.5t-31 84.5q0 34 10 47.5t15 20.5t20 13.5t22.5 10t29 9t30.5 7t33 6t79 25t86 20.5t49.5 -9t28 -20.5t14.5 -36.5q6 -30 6 -112.5t1 -158.5l6 -696q0 -15 3 -46
q30 -5 65 -12q32 56 92 56t93 -28.5t33 -71.5l-4 -71q-5 -110 2 -200t7 -136.5t-38 -66t-90 -19.5t-78 34t-26 81z" />
    <glyph glyph-name="uni0447" unicode="&#x447;" horiz-adv-x="1252" 
d="M744 1062q-8 56 -8 72q0 52 38 80.5t97 28.5t88.5 -32t29.5 -67t-8 -77l-5 -200v-653l30 9q67 20 93 19.5t57.5 -29t31.5 -75.5t-28 -82.5t-69 -38.5q-11 -1 -99.5 -18t-133.5 -17t-79 31.5t-34 86.5l3 147v615q-103 23 -192 42t-229 52l3 -198q0 -47 -26 -81t-78 -34
t-90 19.5t-38 66t6 126.5q8 98 3 210l-4 71q0 43 33 71.5t93 28.5t92 -56q185 -59 423 -118z" />
    <glyph glyph-name="uni0448" unicode="&#x448;" horiz-adv-x="2349" 
d="M2110 1148l-16 -204q0 -161 14 -737q28 5 70 5t74 -27t32 -80t-27 -81.5t-69 -28.5l-62 8l-164 -8q-76 0 -76 103v20q-155 -129 -330 -129q-250 0 -388 143q-82 -68 -178 -105.5t-180 -37.5q-256 0 -407 150t-151 423q0 90 21 216t53 214q-20 -6 -44 -6t-47 12.5
t-33 31.5q-18 36 -18 82.5t43 67.5t199 54q66 18 86 18q60 0 90 -32.5t30 -87.5t-50 -114q-46 -73 -74 -205.5t-28 -250.5q0 -167 83 -262.5t253 -95.5q82 0 138 23t112 74q-42 112 -42 235t24 251t66 218q-64 -16 -83 -16t-41 12.5t-31 32.5q-17 38 -17 80t27 65t63 27
q119 14 139 24q43 22 99 22t86 -39.5t30 -90t-37 -117t-66 -197.5t-29 -246q0 -171 71 -264.5t240 -93.5t321 153q2 135 2 399t-4 257q-58 -17 -68 -17q-110 0 -110 104q0 95 115 115q17 3 40 6t73 17t90 14q86 0 86 -104z" />
    <glyph glyph-name="uni0449" unicode="&#x449;" horiz-adv-x="2349" 
d="M2172 -12q-38 15 -46 15l-164 -8q-76 0 -76 103v20q-155 -129 -330 -129q-250 0 -388 143q-82 -68 -178 -105.5t-180 -37.5q-256 0 -407 150t-151 423q0 90 21 216t53 214q-20 -6 -44 -6t-47 12.5t-33 31.5q-18 36 -18 82.5t43 67.5t199 54q66 18 86 18q60 0 90 -32.5
t30 -87.5t-50 -114q-46 -73 -74 -205.5t-28 -250.5q0 -167 83 -262.5t253 -95.5q82 0 138 23t112 74q-42 112 -42 235t24 251t66 218q-64 -16 -83 -16t-41 12.5t-31 32.5q-17 38 -17 80t27 65t63 27q119 14 139 24q43 22 99 22t86 -39.5t30 -90t-37 -117t-66 -197.5
t-29 -246q0 -171 71 -264.5t240 -93.5t321 153q2 135 2 399t-4 257q-58 -17 -68 -17q-110 0 -110 104q0 95 115 115q17 3 40 6t73 17t90 14q86 0 86 -104l-16 -204q0 -161 14 -737q27 5 69 5q41 56 97 56t90 -29.5t32 -70.5q0 -11 -2 -35q-8 -141 -0.5 -227t8.5 -139
q0 -92 -126 -92q-54 0 -80.5 35t-25.5 75q1 147 2 203z" />
    <glyph glyph-name="uni044A" unicode="&#x44a;" horiz-adv-x="1649" 
d="M752 597q77 -38 152 -57.5t99 -25.5q158 -40 193 -59q65 -36 82 -57q34 -39 35 -87q-3 -31 -18 -58q-23 -27 -55 -45q-78 -34 -179 -37q-101 3 -197 31q-55 28 -100 69q-8 208 -12 326zM101 720q2 -82 126 -84q55 1 80 34t26 75t-1 111t-2 94q88 33 189 53q0 -6 4 -56
t12.5 -273t4.5 -316q-7 -137 -11 -170q-14 -117 -4 -145q26 -72 133 -69q79 2 105 50q46 -24 134 -39q136 -23 225 -11q164 22 222 54q85 46 113 82q50 63 62 115q22 96 11 149q-19 85 -51 128q-47 64 -85 86q-62 38 -122 61t-79 28.5t-52.5 15t-65.5 18.5t-55 15
q-221 62 -246 147q-15 53 -21 67t-6 15q0 83 5.5 113.5t5.5 49.5q0 42 -18 69q-30 45 -74 46.5t-69 -7.5t-30 -9t-243 -43q-33 56 -92.5 55.5t-94.5 -30t-31 -69.5q1 -11 2 -35t2 -33q4 -83 -2.5 -195t-6.5 -147z" />
    <glyph glyph-name="uni044B" unicode="&#x44b;" horiz-adv-x="1576" 
d="M200 1200q-109 -24 -86 -182q5 -37 5 -224q18 -481 17 -504q-3 -65 -7 -101q-14 -118 -4 -146q26 -72 133 -69q79 2 105 50q46 -24 134 -39q136 -23 225 -11q164 22 222 54q85 46 113 82q50 63 62 115q22 96 11 149q-19 85 -51 128q-47 64 -85 86q-62 38 -122 61
t-79 28.5t-52.5 15t-65.5 18.5t-55 15q-221 62 -246 147q-15 53 -21 67t-6 15q0 145 1 145q28 -43 7 -43l3 23q5 50 -17 79.5t-39 37.5q-38 17 -102 3zM352 597q77 -38 152 -57.5t99 -25.5q158 -40 193 -59q65 -36 82 -57q34 -39 35 -87q-3 -31 -18 -58q-23 -27 -55 -45
q-78 -34 -179 -37q-101 3 -197 31q-55 28 -100 69q-8 208 -12 326zM1255 982l-12 118q0 127 153 127q45 0 71 -34t26 -69.5t-9 -89.5q-7 -203 6 -498l18 -395q5 -33 5 -71t-26 -67t-96.5 -29t-97 23.5t-34.5 85.5q-1 8 7.5 99t7.5 107q-19 289 -19 693z" />
    <glyph glyph-name="uni044C" unicode="&#x44c;" horiz-adv-x="1249" 
d="M200 1200q-109 -24 -86 -182q5 -37 5 -224q18 -481 17 -504q-3 -65 -7 -101q-14 -118 -4 -146q26 -72 133 -69q79 2 105 50q46 -24 134 -39q136 -23 225 -11q164 22 222 54q85 46 113 82q50 63 62 115q22 96 11 149q-19 85 -51 128q-47 64 -85 86q-62 38 -122 61
t-79 28.5t-52.5 15t-65.5 18.5t-55 15q-221 62 -246 147q-15 53 -21 67t-6 15q0 145 1 145q28 -43 7 -43l3 23q5 50 -17 79.5t-39 37.5q-38 17 -102 3zM352 597q77 -38 152 -57.5t99 -25.5q158 -40 193 -59q65 -36 82 -57q34 -39 35 -87q-3 -31 -18 -58q-23 -27 -55 -45
q-78 -34 -179 -37q-101 3 -197 31q-55 28 -100 69q-8 208 -12 326z" />
    <glyph glyph-name="uni044D" unicode="&#x44d;" horiz-adv-x="1385" 
d="M149 1087l-20 -179q0 -51 26 -83t67.5 -32t64.5 13t32.5 27t23.5 42t23.5 43t32 37t50.5 35q68 30 173 30q252 0 350 -215l-448 -80q-31 6 -73 -1.5t-67 -38t-15 -88t42 -84.5t76 -19q14 3 54 10.5t79.5 14.5t395.5 74q0 -113 -58 -215q-67 -115 -185 -162
q-66 -26 -146 -26t-166.5 38t-137.5 104q-47 59 -94 56q-111 -7 -111 -99v-10q5 -69 70 -142q162 -162 450 -162q132 0 248 50.5t196 136.5t126 202t46 244q0 18 -1 35q55 32 38 128q-10 55 -46 66q-12 3 -20.5 4t-8.5 3q-86 245 -320 340q-128 52 -284 52t-248 -59
q-17 97 -119 97q-47 0 -74.5 -25.5t-27.5 -68.5z" />
    <glyph glyph-name="uni044E" unicode="&#x44e;" horiz-adv-x="1925" 
d="M876 897.5q-105 -118.5 -105 -302t105 -296.5t278.5 -113t285.5 110.5t112 296t-106 304.5t-285.5 119t-284.5 -118.5zM385 1117l-14 -165q0 -46 -1 -282q130 25 178 35q17 113 75 213q83 145 226 229.5t319 84.5t319 -85t219 -227.5t76 -322t-85.5 -325.5t-226.5 -223.5
t-288 -77.5t-260 46q-237 96 -332 327q-28 66 -40 138q-108 -18 -182 -34q-2 -199 1 -256q20 1 53 13t69 12t54 -20q28 -31 28 -77q0 -71 -106 -104q-166 -45 -208 -45q-115 0 -115 104q0 26 7.5 79.5t7.5 295.5t-6 558q-67 -5 -127 -5q-125 0 -125 108q0 51 27.5 79.5
t68.5 28.5l149 -7l144 7q95 0 95 -102z" />
    <glyph glyph-name="uni044F" unicode="&#x44f;" horiz-adv-x="1460" 
d="M345 118zM128 215l108 -19q43 0 74 114.5t110 204.5q27 31 67 56q-168 58 -236 156q-55 78 -53 176q2 183 154 263q139 74 312 74q83 1 117.5 -8t157.5 -52q23 39 81 39l144 -7l149 7q41 0 68.5 -28.5t27.5 -81.5t-32 -79.5t-92.5 -26.5t-127.5 5q-10 -530 -5 -539
q-1 0 -1 -130.5t7.5 -184t7.5 -79.5q0 -104 -115 -104q-42 0 -208 45q-106 33 -106 104q0 97 94 97q24 0 57 -12t53 -13q2 44 2 122.5t-1 131.5l-175 1q-120 -3 -187 -66q-22 -21 -44 -99.5t-30 -102t-24 -61.5t-34 -60t-44 -45q-51 -44 -145 -44q-234 0 -234 133
q0 52 29 82.5t74 30.5zM925 656l19 1q-5 136 -5 273q-7 12 -12 24q-114 94 -270 94q-104 -1 -170 -37.5t-67 -98.5q-3 -83 127 -136q52 -22 155 -50q171 -48 223 -70z" />
    <glyph glyph-name="uni0451" unicode="&#x451;" horiz-adv-x="1402" 
d="M804 1411q-30 35 -30 74t2.5 65t11 59t22.5 58q34 60 96 60q117 0 117 -156v-6q0 -95 -28 -142t-94.5 -47t-96.5 35zM116 1259q-30 35 -30 74t2.5 65t11.5 59q18 70 55 96t111 26q69 0 69 -160v-6q0 -95 -28 -142t-94.5 -47t-96.5 35zM136.5 415q-22.5 85 -22.5 199
t48 236t132 206q178 176 448 176q191 0 328.5 -108t173.5 -281q39 -33 39 -87q0 -98 -107 -125q-150 -38 -429.5 -96.5t-389.5 -83.5q52 -198 240 -251q50 -14 103 -14q139 0 230.5 40.5t121.5 83.5q20 31 50.5 53t67.5 22t65 -29.5t28 -80.5t-66 -111q-208 -193 -498 -193
q-114 0 -212 37.5t-165.5 99.5t-115 142t-70 165zM340 636q107 25 340.5 74t357.5 79q-36 98 -117 162.5t-186 64.5q-168 0 -274 -103.5t-121 -276.5z" />
    <glyph glyph-name="uni2000" unicode="&#x2000;" horiz-adv-x="954" 
 />
    <glyph glyph-name="uni2001" unicode="&#x2001;" horiz-adv-x="1908" 
 />
    <glyph glyph-name="uni2002" unicode="&#x2002;" horiz-adv-x="954" 
 />
    <glyph glyph-name="uni2003" unicode="&#x2003;" horiz-adv-x="1908" 
 />
    <glyph glyph-name="uni2004" unicode="&#x2004;" horiz-adv-x="636" 
 />
    <glyph glyph-name="uni2005" unicode="&#x2005;" horiz-adv-x="477" 
 />
    <glyph glyph-name="uni2006" unicode="&#x2006;" horiz-adv-x="318" 
 />
    <glyph glyph-name="uni2007" unicode="&#x2007;" horiz-adv-x="318" 
 />
    <glyph glyph-name="uni2008" unicode="&#x2008;" horiz-adv-x="238" 
 />
    <glyph glyph-name="uni2009" unicode="&#x2009;" horiz-adv-x="381" 
 />
    <glyph glyph-name="uni200A" unicode="&#x200a;" horiz-adv-x="106" 
 />
    <glyph glyph-name="uni2010" unicode="&#x2010;" 
d="M945 609l-125 1q-64 0 -616 6q-99 0 -99 126q0 56 34 72.5t108 16.5l621 -1q30 11 72.5 11t72.5 -26t30 -84t-26.5 -90t-71.5 -32z" />
    <glyph glyph-name="uni2011" unicode="&#x2011;" 
d="M945 609l-125 1q-64 0 -616 6q-99 0 -99 126q0 56 34 72.5t108 16.5l621 -1q30 11 72.5 11t72.5 -26t30 -84t-26.5 -90t-71.5 -32z" />
    <glyph glyph-name="figuredash" unicode="&#x2012;" 
d="M945 609l-125 1q-64 0 -616 6q-99 0 -99 126q0 56 34 72.5t108 16.5l621 -1q30 11 72.5 11t72.5 -26t30 -84t-26.5 -90t-71.5 -32z" />
    <glyph glyph-name="endash" unicode="&#x2013;" horiz-adv-x="1348" 
d="M1039 829l80 12q32 0 57 -17q47 -34 47 -92.5t-31.5 -91t-76.5 -32.5q-314 0 -909 6q-100 0 -100 127q0 56 34 72t108 16h791z" />
    <glyph glyph-name="emdash" unicode="&#x2014;" horiz-adv-x="1862" 
d="M1567 830l90 11q37 0 71 -26.5t34 -83t-36 -89.5t-82 -33q-839 0 -1435 6q-99 0 -99 127q0 56 34 72t108 16h1315z" />
    <glyph glyph-name="quoteleft" unicode="&#x2018;" horiz-adv-x="675" 
d="M188 1157.5q-44 52.5 -44 114.5t18 126t47 126.5t71.5 107t88 44.5t70.5 -22t25 -59.5t-39.5 -109t-35.5 -118.5q57 -36 57 -109.5t-42.5 -113t-107 -39.5t-108.5 52.5z" />
    <glyph glyph-name="quoteright" unicode="&#x2019;" horiz-adv-x="675" 
d="M236 1139q-25 22 -25 59.5t39.5 109t35.5 118.5q-57 36 -57 109.5t42.5 113t107 39.5t108.5 -52.5t44 -114.5t-18 -126t-47 -126.5t-71.5 -107t-88 -44.5t-70.5 22z" />
    <glyph glyph-name="quotedblleft" unicode="&#x201c;" horiz-adv-x="1128" 
d="M188 1167.5q-44 52.5 -44 114.5t18 126t47 126.5t71.5 107t88 44.5t70.5 -22t25 -59.5t-39.5 -109t-35.5 -118.5q57 -36 57 -109.5t-42.5 -113t-107 -39.5t-108.5 52.5zM640 1167.5q-44 52.5 -44 114.5t18 126t47 126.5t71.5 107t88 44.5t70.5 -22t25 -59.5t-39.5 -109
t-35.5 -118.5q57 -36 57 -109.5t-42.5 -113t-107 -39.5t-108.5 52.5z" />
    <glyph glyph-name="quotedblright" unicode="&#x201d;" horiz-adv-x="1128" 
d="M236 1139q-25 22 -25 59.5t39.5 109t35.5 118.5q-57 36 -57 109.5t42.5 113t107 39.5t108.5 -52.5t44 -114.5t-18 -126t-47 -126.5t-71.5 -107t-88 -44.5t-70.5 22zM689 1139q-25 22 -25 59.5t39.5 109t35.5 118.5q-57 36 -57 109.5t42.5 113t107 39.5t108.5 -52.5
t44 -114.5t-18 -126t-47 -126.5t-71.5 -107t-88 -44.5t-70.5 22z" />
    <glyph glyph-name="bullet" unicode="&#x2022;" horiz-adv-x="844" 
d="M285 661q-53 53 -53 139.5t53 139.5t131 53t131 -53t53 -139t-53 -139.5t-131 -53.5t-131 53z" />
    <glyph glyph-name="ellipsis" unicode="&#x2026;" horiz-adv-x="1764" 
d="M199 10q-30 35 -30 74t2.5 65t11 59t22.5 58q34 60 96 60q117 0 117 -156v-6q0 -95 -28 -142t-94.5 -47t-96.5 35zM773 26q-30 35 -30 74t2.5 65t11 59t22.5 58q34 60 96 60q117 0 117 -156v-6q0 -95 -28 -142t-94.5 -47t-96.5 35zM1376 -2q-30 35 -30 74t2.5 65t11 59
t22.5 58q34 60 96 60q117 0 117 -156v-6q0 -95 -28 -142t-94.5 -47t-96.5 35z" />
    <glyph glyph-name="uni202F" unicode="&#x202f;" horiz-adv-x="381" 
 />
    <glyph glyph-name="uni205F" unicode="&#x205f;" horiz-adv-x="477" 
 />
    <glyph glyph-name="Euro" unicode="&#x20ac;" horiz-adv-x="1531" 
d="M173 479l-95 1q-73 0 -90 50q-9 24 -9 63.5t29.5 62t64.5 25.5l59 3q-2 36 -2 72.5t5 99.5h-10q-75 0 -91 46q-8 24 -8 65.5t28.5 63t50.5 23.5q33 3 70 3q118 364 499 460q112 28 252.5 28t267 -72t126.5 -156q0 -53 -36 -84.5t-75.5 -31.5t-59 10.5t-45 33.5t-45 36.5
t-70 27.5t-117 14t-129.5 -14t-125 -43q-137 -63 -205 -206q169 1 467 1l70 12q38 0 71 -27.5t33 -89.5q0 -101 -97 -101h-595q-2 -18 -2 -66.5t6 -101.5q149 1 469 1l70 11q37 0 70.5 -28t33.5 -89q0 -103 -98 -103h-485q70 -141 198.5 -209.5t276.5 -68.5q89 0 180.5 29
t126.5 29t63 -26t28 -66.5t-36 -75.5t-86.5 -54t-114.5 -31q-103 -18 -192 -18q-244 0 -432 136t-265 355z" />
    <glyph glyph-name="trademark" unicode="&#x2122;" horiz-adv-x="2739" 
d="M470 1060l-1 284h-176q-59 0 -93 30t-34 70t27.5 68.5t80.5 35.5l670 1q54 -8 81 -36.5t27 -61t-10.5 -52t-26.5 -30t-43 -16.5q-42 -9 -114 -9h-151q-1 -217 -1 -636q-14 -44 -46.5 -67.5t-71 -23.5t-71 23.5t-47.5 67.5v352zM1237 709v738q0 51 31 77.5t77 26.5t72 -11
t40 -27.5t48 -64.5l338 -480q38 64 135.5 224t158.5 260t190 100q110 0 110 -116v-729q-14 -43 -45.5 -66.5t-68.5 -23.5q-73 0 -102 89l-13 472q-80 -131 -151.5 -258t-86 -150t-36.5 -52q-40 -50 -98.5 -50t-114.5 81q-124 177 -270 397v-442q-27 -87 -100 -87
q-37 0 -69 24t-45 68z" />
    <glyph glyph-name="uniE000" unicode="&#xe000;" horiz-adv-x="1230" 
d="M0 1230h1230v-1230h-1230v1230z" />
  </font>
</defs>
</svg>
